<svg id="Layer_1" data-name="Layer 1" xmlns="http://www.w3.org/2000/svg" xmlns:xlink="http://www.w3.org/1999/xlink" viewBox="0 0 1366 768"><defs><style>.cls-1{fill:url(#radial-gradient);}.cls-2{fill:url(#radial-gradient-2);}.cls-3{fill:url(#radial-gradient-3);}.cls-4{fill:url(#radial-gradient-4);}.cls-5{fill:url(#linear-gradient);}.cls-6{fill:url(#radial-gradient-5);}.cls-7{fill:url(#radial-gradient-6);}.cls-8{fill:url(#radial-gradient-7);}.cls-9{fill:url(#radial-gradient-8);}.cls-10{fill:url(#radial-gradient-9);}.cls-11,.cls-113,.cls-114,.cls-119,.cls-120,.cls-121,.cls-123,.cls-125,.cls-13,.cls-14,.cls-16,.cls-17,.cls-19,.cls-20,.cls-22,.cls-23,.cls-25,.cls-26,.cls-28,.cls-29,.cls-31,.cls-32,.cls-34,.cls-35,.cls-37,.cls-38,.cls-40,.cls-41,.cls-43,.cls-44,.cls-46{opacity:0.7;}.cls-11{fill:url(#linear-gradient-2);}.cls-12{fill:url(#radial-gradient-10);}.cls-13{fill:url(#radial-gradient-11);}.cls-14{fill:url(#linear-gradient-3);}.cls-15{fill:url(#radial-gradient-12);}.cls-16{fill:url(#radial-gradient-13);}.cls-17{fill:url(#linear-gradient-4);}.cls-18{fill:url(#radial-gradient-14);}.cls-19{fill:url(#radial-gradient-15);}.cls-20{fill:url(#linear-gradient-5);}.cls-21{fill:url(#radial-gradient-16);}.cls-22{fill:url(#radial-gradient-17);}.cls-23{fill:url(#linear-gradient-6);}.cls-24{fill:url(#radial-gradient-18);}.cls-25{fill:url(#radial-gradient-19);}.cls-26{fill:url(#linear-gradient-7);}.cls-27{fill:url(#radial-gradient-20);}.cls-28{fill:url(#radial-gradient-21);}.cls-29{fill:url(#linear-gradient-8);}.cls-30{fill:url(#radial-gradient-22);}.cls-31{fill:url(#radial-gradient-23);}.cls-32{fill:url(#linear-gradient-9);}.cls-33{fill:url(#radial-gradient-24);}.cls-34{fill:url(#radial-gradient-25);}.cls-35{fill:url(#linear-gradient-10);}.cls-36{fill:url(#radial-gradient-26);}.cls-37{fill:url(#radial-gradient-27);}.cls-38{fill:url(#linear-gradient-11);}.cls-39{fill:url(#radial-gradient-28);}.cls-40{fill:url(#radial-gradient-29);}.cls-41{fill:url(#linear-gradient-12);}.cls-42{fill:url(#radial-gradient-30);}.cls-43{fill:url(#radial-gradient-31);}.cls-44{fill:url(#linear-gradient-13);}.cls-45{fill:url(#radial-gradient-32);}.cls-46{fill:url(#radial-gradient-33);}.cls-47{fill:url(#linear-gradient-14);}.cls-48{fill:url(#linear-gradient-15);}.cls-49{fill:url(#linear-gradient-16);}.cls-50{fill:url(#linear-gradient-17);}.cls-51,.cls-52,.cls-53{font-size:12px;}.cls-106,.cls-51,.cls-74{fill:#fff;}.cls-106,.cls-51,.cls-52,.cls-53{font-family:Arial-BoldMT, Arial;font-weight:700;}.cls-106,.cls-108,.cls-52{isolation:isolate;}.cls-54{fill:#0052af;}.cls-55,.cls-56,.cls-57,.cls-58,.cls-59,.cls-60,.cls-61,.cls-62,.cls-63,.cls-64,.cls-65,.cls-66{fill:none;stroke-miterlimit:10;stroke-width:8px;}.cls-55{stroke:url(#linear-gradient-18);}.cls-56{stroke:url(#linear-gradient-19);}.cls-57{stroke:url(#linear-gradient-20);}.cls-58{stroke:url(#linear-gradient-21);}.cls-59{stroke:url(#linear-gradient-22);}.cls-60{stroke:url(#linear-gradient-23);}.cls-61{stroke:url(#linear-gradient-24);}.cls-62{stroke:url(#linear-gradient-25);}.cls-63{stroke:url(#linear-gradient-26);}.cls-64{stroke:url(#linear-gradient-27);}.cls-65{stroke:url(#linear-gradient-28);}.cls-66{stroke:#0052af;}.cls-67{opacity:0.5;}.cls-68{fill:#2f9ec2;}.cls-69{fill:#d1eaf2;}.cls-70{fill:#9bd1e2;}.cls-71{fill:#80c4da;}.cls-72{fill:#65b7d2;}.cls-73{fill:#4aabca;}.cls-104,.cls-74{opacity:0;}.cls-75{fill:url(#linear-gradient-29);}.cls-76{fill:url(#linear-gradient-30);}.cls-77{fill:url(#linear-gradient-31);}.cls-78{fill:url(#linear-gradient-32);}.cls-79{fill:url(#linear-gradient-33);}.cls-80{fill:url(#linear-gradient-34);}.cls-81{fill:url(#linear-gradient-35);}.cls-82{fill:url(#linear-gradient-36);}.cls-83{fill:url(#linear-gradient-37);}.cls-84{fill:url(#linear-gradient-38);}.cls-85{fill:url(#linear-gradient-39);}.cls-86{fill:url(#linear-gradient-40);}.cls-87{fill:url(#linear-gradient-41);}.cls-88{fill:url(#linear-gradient-42);}.cls-89{fill:url(#linear-gradient-43);}.cls-90{fill:url(#linear-gradient-44);}.cls-91{fill:url(#linear-gradient-45);}.cls-92{fill:url(#linear-gradient-46);}.cls-93{fill:url(#linear-gradient-47);}.cls-94{fill:url(#linear-gradient-48);}.cls-95{fill:url(#linear-gradient-49);}.cls-96{fill:url(#linear-gradient-50);}.cls-97{fill:url(#linear-gradient-51);}.cls-98{fill:url(#linear-gradient-52);}.cls-99{fill:url(#linear-gradient-53);}.cls-100{fill:url(#linear-gradient-54);}.cls-101{fill:url(#linear-gradient-55);}.cls-102{fill:url(#linear-gradient-56);}.cls-103{fill:#0f82bc;}.cls-105{fill:#c6c6c6;}.cls-106{font-size:9px;}.cls-107,.cls-137,.cls-159{opacity:0.75;}.cls-109{fill:url(#radial-gradient-34);}.cls-110{fill:#5656a5;}.cls-111{fill:url(#radial-gradient-35);}.cls-112{fill:#4b4b96;}.cls-113{fill:url(#linear-gradient-57);}.cls-114{fill:url(#radial-gradient-36);}.cls-115{fill:url(#radial-gradient-37);}.cls-116{fill:url(#radial-gradient-38);}.cls-117{fill:url(#radial-gradient-39);}.cls-118{fill:url(#radial-gradient-40);}.cls-119{fill:url(#linear-gradient-58);}.cls-120{fill:url(#radial-gradient-41);}.cls-121{fill:url(#radial-gradient-42);}.cls-122{mask:url(#mask);}.cls-123{fill:url(#radial-gradient-43);}.cls-124{mask:url(#mask-2);}.cls-125{fill:url(#radial-gradient-44);}.cls-126{fill:url(#linear-gradient-59);}.cls-127{fill:url(#linear-gradient-60);}.cls-128{fill:url(#linear-gradient-61);}.cls-129{fill:#564bbc;}.cls-130{fill:url(#linear-gradient-62);}.cls-131{fill:url(#linear-gradient-63);}.cls-132{fill:url(#linear-gradient-64);}.cls-133{fill:url(#linear-gradient-65);}.cls-134{mask:url(#mask-3);}.cls-135{fill:url(#radial-gradient-45);}.cls-136{mask:url(#mask-4);}.cls-137{fill:url(#linear-gradient-66);}.cls-138{mask:url(#mask-5);}.cls-139{opacity:0.8;}.cls-140{fill:url(#linear-gradient-67);}.cls-141{fill:url(#linear-gradient-68);}.cls-142{fill:url(#linear-gradient-69);}.cls-143{fill:url(#linear-gradient-70);}.cls-144{fill:url(#linear-gradient-71);}.cls-145{fill:url(#linear-gradient-72);}.cls-146{fill:url(#linear-gradient-73);}.cls-147{fill:url(#linear-gradient-74);}.cls-148{fill:url(#linear-gradient-75);}.cls-149{fill:url(#linear-gradient-76);}.cls-150{fill:url(#linear-gradient-77);}.cls-151{fill:url(#linear-gradient-78);}.cls-152{fill:url(#linear-gradient-79);}.cls-153{fill:url(#linear-gradient-80);}.cls-154{fill:url(#linear-gradient-81);}.cls-155{fill:url(#linear-gradient-82);}.cls-156{mask:url(#mask-6);}.cls-157{fill:url(#radial-gradient-46);}.cls-158{mask:url(#mask-7);}.cls-159{fill:url(#linear-gradient-83);}.cls-160{mask:url(#mask-8);}.cls-161{fill:url(#radial-gradient-47);}.cls-162{mask:url(#mask-9);}.cls-163{fill:url(#radial-gradient-48);}.cls-164{fill:url(#linear-gradient-84);}.cls-165{fill:url(#linear-gradient-85);}.cls-166{fill:url(#linear-gradient-86);}.cls-167{fill:url(#linear-gradient-87);}.cls-168{fill:url(#linear-gradient-88);}.cls-169{fill:url(#linear-gradient-89);}.cls-170{fill:url(#linear-gradient-90);}.cls-171{fill:url(#linear-gradient-91);}.cls-172{fill:url(#linear-gradient-92);}.cls-173{fill:url(#linear-gradient-93);}.cls-174{fill:url(#linear-gradient-94);}.cls-175{fill:url(#linear-gradient-95);}.cls-176{fill:url(#linear-gradient-96);}</style><radialGradient id="radial-gradient" cx="692.6733" cy="345.4034" r="2.5171" gradientTransform="matrix(1.6361, -0.0199, 0.0964, 2.9645, -467.4187, -664.7908)" gradientUnits="userSpaceOnUse"><stop offset="0" stop-color="#fff"/><stop offset="0.1035" stop-color="#fafafa"/><stop offset="0.2271" stop-color="#ebebeb"/><stop offset="0.3611" stop-color="#d3d3d3"/><stop offset="0.5025" stop-color="#b2b2b2"/><stop offset="0.6496" stop-color="#868686"/><stop offset="0.8016" stop-color="#515151"/><stop offset="0.9547" stop-color="#141414"/><stop offset="1"/></radialGradient><radialGradient id="radial-gradient-2" cx="867.8807" cy="261.8192" r="13.8931" gradientTransform="matrix(-0.0284, -0.9992, 0.0932, -0.0054, 699.3132, 1214.4501)" gradientUnits="userSpaceOnUse"><stop offset="0" stop-color="#fff"/><stop offset="0.1563" stop-color="#bfbfbf"/><stop offset="0.3134" stop-color="#858585"/><stop offset="0.4659" stop-color="#565656"/><stop offset="0.6097" stop-color="#303030"/><stop offset="0.7428" stop-color="#161616"/><stop offset="0.8612" stop-color="#060606"/><stop offset="0.9529"/></radialGradient><radialGradient id="radial-gradient-3" cx="965.5447" cy="484.9457" r="96.6767" gradientTransform="matrix(0, -1.0437, 1.1384, 0, 428.2182, 1625.0226)" gradientUnits="userSpaceOnUse"><stop offset="0.3323"/><stop offset="0.3891" stop-color="#090909"/><stop offset="0.48" stop-color="#202020"/><stop offset="0.5936" stop-color="#464646"/><stop offset="0.7255" stop-color="#7b7b7b"/><stop offset="0.8709" stop-color="#bebebe"/><stop offset="1" stop-color="#fff"/></radialGradient><radialGradient id="radial-gradient-4" cx="970.893" cy="388.8247" r="49.5148" gradientTransform="matrix(0, 1.0603, -1.6855, 0, 1637.259, -533.5746)" gradientUnits="userSpaceOnUse"><stop offset="0.4259"/><stop offset="0.8402" stop-color="#fff"/></radialGradient><linearGradient id="linear-gradient" x1="921.6315" y1="515.0208" x2="921.6315" y2="427.1061" gradientTransform="translate(-9.0793 1.448)" gradientUnits="userSpaceOnUse"><stop offset="0.3179"/><stop offset="0.4659" stop-color="#424242"/><stop offset="0.6601" stop-color="#929292"/><stop offset="0.8201" stop-color="#cdcdcd"/><stop offset="0.9376" stop-color="#f1f1f1"/><stop offset="1" stop-color="#fff"/></linearGradient><radialGradient id="radial-gradient-5" cx="886.09" cy="467.5056" r="74.8798" gradientTransform="matrix(-0.009, 1, -0.772, -0.0069, 1275.3857, -425.7568)" gradientUnits="userSpaceOnUse"><stop offset="0"/><stop offset="0.3726" stop-color="#020202"/><stop offset="0.5069" stop-color="#090909"/><stop offset="0.6026" stop-color="#141414"/><stop offset="0.68" stop-color="#252525"/><stop offset="0.7463" stop-color="#3b3b3b"/><stop offset="0.805" stop-color="#575757"/><stop offset="0.8581" stop-color="#777"/><stop offset="0.9069" stop-color="#9d9d9d"/><stop offset="0.9523" stop-color="#c8c8c8"/><stop offset="0.9926" stop-color="#f6f6f6"/><stop offset="1" stop-color="#fff"/></radialGradient><radialGradient id="radial-gradient-6" cx="857.5977" cy="412.6018" r="40.9787" gradientTransform="matrix(-0.0361, 1.193, -1.9834, -0.0429, 1752.0307, -533.6324)" gradientUnits="userSpaceOnUse"><stop offset="0.6502" stop-color="#fff"/><stop offset="0.661" stop-color="#e6e6e6"/><stop offset="0.6841" stop-color="#b6b6b6"/><stop offset="0.7093" stop-color="#8b8b8b"/><stop offset="0.7358" stop-color="#656565"/><stop offset="0.7641" stop-color="#464646"/><stop offset="0.7947" stop-color="#2c2c2c"/><stop offset="0.8285" stop-color="#181818"/><stop offset="0.8672" stop-color="#0b0b0b"/><stop offset="0.9151" stop-color="#020202"/><stop offset="1"/></radialGradient><radialGradient id="radial-gradient-7" cx="918.4382" cy="524.8297" r="15.3133" gradientTransform="matrix(-0.0043, 1, -1.4284, -0.0061, 1677.874, -402.6379)" gradientUnits="userSpaceOnUse"><stop offset="0" stop-color="#fff"/><stop offset="1"/></radialGradient><radialGradient id="radial-gradient-8" cx="889.6989" cy="350.3315" r="15.3133" gradientTransform="matrix(-0.0043, 1, -1.4284, -0.0061, 1451.9862, -349.9255)" xlink:href="#radial-gradient-7"/><radialGradient id="radial-gradient-9" cx="616.8643" cy="361.1463" r="326.4023" gradientTransform="translate(0 147.4279) scale(1 0.5918)" gradientUnits="userSpaceOnUse"><stop offset="0.001" stop-color="#d9cdb2"/><stop offset="0.1785" stop-color="#daceb3" stop-opacity="0.9856"/><stop offset="0.3182" stop-color="#dbd0b7" stop-opacity="0.94"/><stop offset="0.445" stop-color="#ded4bd" stop-opacity="0.8632"/><stop offset="0.5642" stop-color="#e2d9c5" stop-opacity="0.7548"/><stop offset="0.6781" stop-color="#e8e0d0" stop-opacity="0.6148"/><stop offset="0.788" stop-color="#eee9dd" stop-opacity="0.4429"/><stop offset="0.894" stop-color="#f6f3ec" stop-opacity="0.2406"/><stop offset="0.9957" stop-color="#fffefe" stop-opacity="0.0106"/><stop offset="1" stop-color="#fff" stop-opacity="0"/></radialGradient><linearGradient id="linear-gradient-2" x1="376.8905" y1="209.702" x2="376.8905" y2="259.2533" gradientUnits="userSpaceOnUse"><stop offset="0" stop-color="#998abd"/><stop offset="0.5" stop-color="#70658a"/><stop offset="1" stop-color="#372e4a"/></linearGradient><radialGradient id="radial-gradient-10" cx="367.3602" cy="212.5485" r="49.323" gradientUnits="userSpaceOnUse"><stop offset="0.5669" stop-color="#cacacc" stop-opacity="0"/><stop offset="0.6943" stop-color="#8f8690" stop-opacity="0.3348"/><stop offset="1" stop-color="#1a0018"/></radialGradient><radialGradient id="radial-gradient-11" cx="369.0257" cy="227.5175" r="34.7402" gradientUnits="userSpaceOnUse"><stop offset="0" stop-color="#fdfdff"/><stop offset="1" stop-color="#cacacc" stop-opacity="0"/></radialGradient><linearGradient id="linear-gradient-3" x1="376.8905" y1="320.7438" x2="376.8905" y2="369.754" xlink:href="#linear-gradient-2"/><radialGradient id="radial-gradient-12" cx="369.7378" cy="337.1264" r="35.1186" xlink:href="#radial-gradient-10"/><radialGradient id="radial-gradient-13" cx="369.7378" cy="337.1264" r="35.1186" xlink:href="#radial-gradient-11"/><linearGradient id="linear-gradient-4" x1="286.6225" y1="401.2438" x2="286.6225" y2="449.2854" xlink:href="#linear-gradient-2"/><radialGradient id="radial-gradient-14" cx="279.4698" cy="417.1315" r="35.1186" xlink:href="#radial-gradient-10"/><radialGradient id="radial-gradient-15" cx="279.4698" cy="417.1315" r="35.1186" xlink:href="#radial-gradient-11"/><linearGradient id="linear-gradient-5" x1="467.3159" y1="400.7438" x2="467.3159" y2="450.7662" xlink:href="#linear-gradient-2"/><radialGradient id="radial-gradient-16" cx="460.1631" cy="417.1315" r="35.1186" xlink:href="#radial-gradient-10"/><radialGradient id="radial-gradient-17" cx="460.1631" cy="417.1315" r="35.1186" xlink:href="#radial-gradient-11"/><linearGradient id="linear-gradient-6" x1="233.078" y1="488.0915" x2="233.078" y2="537.1017" gradientTransform="translate(745.3786 283.2273) rotate(90)" xlink:href="#linear-gradient-2"/><radialGradient id="radial-gradient-18" cx="233.4437" cy="503.7937" r="35.1186" gradientTransform="matrix(0, 0.5805, -1, 0, 745.3786, 377.016)" xlink:href="#radial-gradient-10"/><radialGradient id="radial-gradient-19" cx="232.7909" cy="504.9849" r="35.1186" gradientTransform="matrix(0, 0.5805, -1, 0, 745.3786, 377.016)" xlink:href="#radial-gradient-11"/><linearGradient id="linear-gradient-7" x1="221.6813" y1="589.7123" x2="231.5537" y2="589.7123" gradientTransform="translate(311.6475 -63.4581) rotate(30)" xlink:href="#linear-gradient-2"/><radialGradient id="radial-gradient-20" cx="210.2842" cy="585.379" r="21.289" gradientTransform="matrix(0.8396, 0.5432, -1.288, 1.9909, 778.4611, -730.9991)" gradientUnits="userSpaceOnUse"><stop offset="0.4608" stop-color="#cacacc" stop-opacity="0"/><stop offset="0.6194" stop-color="#8f8690" stop-opacity="0.3348"/><stop offset="1" stop-color="#1a0018"/></radialGradient><radialGradient id="radial-gradient-21" cx="220.2842" cy="582.7123" r="21.289" gradientTransform="matrix(0.8396, 0.5432, -1.288, 1.9909, 776.6239, -728.4313)" xlink:href="#radial-gradient-11"/><linearGradient id="linear-gradient-8" x1="507.8709" y1="392.2764" x2="507.8709" y2="441.2866" gradientTransform="translate(940.5819 8.4344) rotate(90)" xlink:href="#linear-gradient-2"/><radialGradient id="radial-gradient-22" cx="706.8095" cy="407.9786" r="35.1186" gradientTransform="matrix(0, 0.5805, -1, 0, 940.5819, 102.2231)" xlink:href="#radial-gradient-10"/><radialGradient id="radial-gradient-23" cx="706.1567" cy="409.1698" r="35.1186" gradientTransform="matrix(0, 0.5805, -1, 0, 940.5819, 102.2231)" xlink:href="#radial-gradient-11"/><linearGradient id="linear-gradient-9" x1="511.3678" y1="591.2257" x2="523.3711" y2="591.2257" gradientTransform="translate(351.3575 -208.6313) rotate(30)" xlink:href="#linear-gradient-2"/><radialGradient id="radial-gradient-24" cx="502.3694" cy="592.2257" r="22.383" gradientTransform="matrix(0.8372, 0.5469, -1.0748, 1.6455, 706.2488, -693.8184)" xlink:href="#radial-gradient-10"/><radialGradient id="radial-gradient-25" cx="505.7028" cy="590.8923" r="22.383" gradientTransform="matrix(0.8372, 0.5469, -1.0748, 1.6455, 705.5784, -692.9353)" xlink:href="#radial-gradient-11"/><linearGradient id="linear-gradient-10" x1="403.9973" y1="428.4951" x2="403.9973" y2="477.5053" gradientTransform="translate(866.7937 112.3081) rotate(90)" xlink:href="#linear-gradient-2"/><radialGradient id="radial-gradient-26" cx="527.874" cy="444.1974" r="35.1186" gradientTransform="matrix(0, 0.5805, -1, 0, 866.7937, 206.0967)" xlink:href="#radial-gradient-10"/><radialGradient id="radial-gradient-27" cx="527.2212" cy="445.3885" r="35.1186" gradientTransform="matrix(0, 0.5805, -1, 0, 866.7937, 206.0967)" xlink:href="#radial-gradient-11"/><linearGradient id="linear-gradient-11" x1="402.381" y1="588.9979" x2="411.3999" y2="588.9979" gradientTransform="translate(335.4423 -153.6903) rotate(30)" xlink:href="#linear-gradient-2"/><radialGradient id="radial-gradient-28" cx="396.2238" cy="587.3313" r="18.16" gradientTransform="translate(639.4934 -680.3223) rotate(30) scale(1 2.0354)" gradientUnits="userSpaceOnUse"><stop offset="0.5669" stop-color="#cacacc" stop-opacity="0"/><stop offset="0.5848" stop-color="#bfbdc1" stop-opacity="0.063"/><stop offset="0.8262" stop-color="#453244" stop-opacity="0.7534"/><stop offset="1" stop-color="#1a0018"/></radialGradient><radialGradient id="radial-gradient-29" cx="399.8904" cy="586.3313" r="18.16" gradientTransform="translate(638.9757 -679.4256) rotate(30) scale(1 2.0354)" xlink:href="#radial-gradient-11"/><linearGradient id="linear-gradient-12" x1="337.8959" y1="451.5434" x2="337.8959" y2="500.5536" gradientTransform="translate(819.8376 178.4094) rotate(90)" xlink:href="#linear-gradient-2"/><radialGradient id="radial-gradient-30" cx="414.0059" cy="467.2457" r="35.1186" gradientTransform="matrix(0, 0.5805, -1, 0, 819.8376, 272.1981)" xlink:href="#radial-gradient-10"/><radialGradient id="radial-gradient-31" cx="413.3531" cy="468.4368" r="35.1186" gradientTransform="matrix(0, 0.5805, -1, 0, 819.8376, 272.1981)" xlink:href="#radial-gradient-11"/><linearGradient id="linear-gradient-13" x1="330.6812" y1="591.2074" x2="340.0071" y2="591.2074" gradientTransform="translate(326.9616 -117.6211) rotate(30)" xlink:href="#linear-gradient-2"/><radialGradient id="radial-gradient-32" cx="319.6775" cy="589.2074" r="22.2328" gradientTransform="translate(843.8329 -606.9358) rotate(39.2554) scale(1 2.0979)" gradientUnits="userSpaceOnUse"><stop offset="0.4608" stop-color="#cacacc" stop-opacity="0"/><stop offset="0.5388" stop-color="#a19ba2" stop-opacity="0.2346"/><stop offset="0.7913" stop-color="#3d283b" stop-opacity="0.8028"/><stop offset="1" stop-color="#1a0018"/></radialGradient><radialGradient id="radial-gradient-33" cx="326.6775" cy="585.8741" r="22.2328" gradientTransform="translate(841.7165 -605.3371) rotate(39.2554) scale(1 2.0979)" xlink:href="#radial-gradient-11"/><linearGradient id="linear-gradient-14" x1="743.9178" y1="296.9107" x2="590.5886" y2="296.9107" gradientUnits="userSpaceOnUse"><stop offset="0" stop-color="#f6783e"/><stop offset="0.1604" stop-color="#f67c43"/><stop offset="0.3589" stop-color="#f68652"/><stop offset="0.5773" stop-color="#f6976c"/><stop offset="0.8085" stop-color="#f6af8e"/><stop offset="1" stop-color="#f6c7b1"/></linearGradient><linearGradient id="linear-gradient-15" x1="583.6559" y1="303.843" x2="583.6559" y2="457.1727" xlink:href="#linear-gradient-14"/><linearGradient id="linear-gradient-16" x1="590.5886" y1="464.1054" x2="743.9182" y2="464.1054" xlink:href="#linear-gradient-14"/><linearGradient id="linear-gradient-17" x1="750.8505" y1="457.1727" x2="750.8505" y2="303.8434" xlink:href="#linear-gradient-14"/><linearGradient id="linear-gradient-18" x1="279.1528" y1="265.5816" x2="309.7005" y2="265.5816" gradientTransform="translate(642.4724 -8.9158) rotate(90)" gradientUnits="userSpaceOnUse"><stop offset="0" stop-color="#9cdaff"/><stop offset="1" stop-color="#0052af"/></linearGradient><linearGradient id="linear-gradient-19" x1="285.8642" y1="280.0879" x2="316.412" y2="280.0879" gradientTransform="translate(751.345 408.2506) rotate(140)" xlink:href="#linear-gradient-18"/><linearGradient id="linear-gradient-20" x1="448.0387" y1="335.8119" x2="478.5864" y2="335.8119" gradientTransform="translate(274.0964 -167.7997) rotate(40)" xlink:href="#linear-gradient-18"/><linearGradient id="linear-gradient-21" x1="523.5703" y1="407.3489" x2="554.1181" y2="407.3489" gradientTransform="matrix(0.5736, 0.8192, -0.8192, 0.5736, 328.4398, -204.6369)" xlink:href="#linear-gradient-18"/><linearGradient id="linear-gradient-22" x1="402.1421" y1="342.637" x2="432.6898" y2="342.637" gradientTransform="matrix(-0.5736, 0.8192, -0.8192, -0.5736, 789.5093, 325.0055)" xlink:href="#linear-gradient-18"/><linearGradient id="linear-gradient-23" x1="627.2118" y1="259.3336" x2="657.7595" y2="259.3336" gradientTransform="matrix(0.5736, 0.8192, -0.8192, 0.5736, 328.4398, -204.6369)" xlink:href="#linear-gradient-18"/><linearGradient id="linear-gradient-24" x1="298.5006" y1="194.6216" x2="329.0483" y2="194.6216" gradientTransform="matrix(-0.5736, 0.8192, -0.8192, -0.5736, 789.5093, 325.0055)" xlink:href="#linear-gradient-18"/><linearGradient id="linear-gradient-25" x1="352.8136" y1="-66.4592" x2="366.0157" y2="-66.4592" gradientTransform="translate(289.4871 409.2088)" gradientUnits="userSpaceOnUse"><stop offset="0" stop-color="#9cdaff"/><stop offset="0.8835" stop-color="#0052af"/></linearGradient><linearGradient id="linear-gradient-26" x1="770.5313" y1="-37.0611" x2="803.1664" y2="-37.0611" gradientTransform="translate(872.7272 -380.4366) rotate(90)" xlink:href="#linear-gradient-25"/><linearGradient id="linear-gradient-27" x1="886.7088" y1="342.891" x2="1054.2708" y2="342.891" gradientTransform="translate(928.6272 1506.7436) rotate(-119.7722)" xlink:href="#linear-gradient-18"/><linearGradient id="linear-gradient-28" x1="767.6466" y1="337.6926" x2="835.1612" y2="337.6926" gradientTransform="translate(56.4152 -148.9004) rotate(10.4438)" xlink:href="#linear-gradient-18"/><linearGradient id="linear-gradient-29" x1="367.9414" y1="220.655" x2="374.9454" y2="227.659" gradientUnits="userSpaceOnUse"><stop offset="0.0005" stop-color="#e36023"/><stop offset="0.9995" stop-color="#852c03"/></linearGradient><linearGradient id="linear-gradient-30" x1="365.0719" y1="234.6939" x2="376.0141" y2="245.6361" gradientUnits="userSpaceOnUse"><stop offset="0" stop-color="#e36023"/><stop offset="0.0795" stop-color="#d7591f"/><stop offset="0.3452" stop-color="#b34613"/><stop offset="0.595" stop-color="#9a380a"/><stop offset="0.8204" stop-color="#8a2f05"/><stop offset="1" stop-color="#852c03"/></linearGradient><linearGradient id="linear-gradient-31" x1="377.9421" y1="220.655" x2="384.9461" y2="227.659" gradientUnits="userSpaceOnUse"><stop offset="0" stop-color="#8776e3"/><stop offset="0.9995" stop-color="#170385"/></linearGradient><linearGradient id="linear-gradient-32" x1="375.0725" y1="234.6939" x2="386.0148" y2="245.6361" xlink:href="#linear-gradient-31"/><linearGradient id="linear-gradient-33" x1="364.1181" y1="345.7287" x2="376.8198" y2="358.4305" xlink:href="#linear-gradient-30"/><linearGradient id="linear-gradient-34" x1="365.6065" y1="329.1384" x2="375.3314" y2="338.8633" xlink:href="#linear-gradient-29"/><linearGradient id="linear-gradient-35" x1="377.1185" y1="345.7287" x2="389.8203" y2="358.4305" xlink:href="#linear-gradient-31"/><linearGradient id="linear-gradient-36" x1="378.6069" y1="329.1384" x2="388.3318" y2="338.8633" xlink:href="#linear-gradient-31"/><linearGradient id="linear-gradient-37" x1="280.2716" y1="425.7338" x2="292.9734" y2="438.4355" xlink:href="#linear-gradient-30"/><linearGradient id="linear-gradient-38" x1="281.76" y1="409.1435" x2="291.485" y2="418.8684" xlink:href="#linear-gradient-29"/><linearGradient id="linear-gradient-39" x1="282.2703" y1="411.0203" x2="285.9743" y2="414.7243" xlink:href="#linear-gradient-31"/><linearGradient id="linear-gradient-40" x1="287.2707" y1="432.0556" x2="290.9748" y2="435.7597" xlink:href="#linear-gradient-31"/><linearGradient id="linear-gradient-41" x1="460.965" y1="425.7338" x2="473.6667" y2="438.4355" xlink:href="#linear-gradient-31"/><linearGradient id="linear-gradient-42" x1="462.4534" y1="409.1434" x2="472.1783" y2="418.8684" xlink:href="#linear-gradient-31"/><linearGradient id="linear-gradient-43" x1="462.9637" y1="411.0203" x2="466.6677" y2="414.7243" xlink:href="#linear-gradient-29"/><linearGradient id="linear-gradient-44" x1="467.9641" y1="432.0556" x2="471.6682" y2="435.7597" xlink:href="#linear-gradient-30"/><linearGradient id="linear-gradient-45" x1="337.1654" y1="502.6035" x2="344.1694" y2="509.6075" xlink:href="#linear-gradient-29"/><linearGradient id="linear-gradient-46" x1="334.2959" y1="516.6424" x2="345.2381" y2="527.5846" xlink:href="#linear-gradient-30"/><linearGradient id="linear-gradient-47" x1="339.2622" y1="523.1348" x2="342.9663" y2="526.8389" xlink:href="#linear-gradient-31"/><linearGradient id="linear-gradient-48" x1="228.1818" y1="502.6035" x2="235.1858" y2="509.6075" xlink:href="#linear-gradient-29"/><linearGradient id="linear-gradient-49" x1="225.3123" y1="516.6424" x2="236.2545" y2="527.5846" xlink:href="#linear-gradient-30"/><linearGradient id="linear-gradient-50" x1="230.2787" y1="502.0995" x2="233.9827" y2="505.8035" xlink:href="#linear-gradient-31"/><linearGradient id="linear-gradient-51" x1="408.8752" y1="502.6035" x2="415.8792" y2="509.6075" xlink:href="#linear-gradient-31"/><linearGradient id="linear-gradient-52" x1="406.0056" y1="516.6424" x2="416.9479" y2="527.5846" xlink:href="#linear-gradient-31"/><linearGradient id="linear-gradient-53" x1="410.9721" y1="502.957" x2="414.6761" y2="506.661" xlink:href="#linear-gradient-29"/><linearGradient id="linear-gradient-54" x1="517.8588" y1="502.6035" x2="524.8628" y2="509.6075" xlink:href="#linear-gradient-31"/><linearGradient id="linear-gradient-55" x1="514.9892" y1="516.6424" x2="525.9315" y2="527.5846" xlink:href="#linear-gradient-31"/><linearGradient id="linear-gradient-56" x1="519.9556" y1="523.9923" x2="523.6597" y2="527.6964" xlink:href="#linear-gradient-30"/><radialGradient id="radial-gradient-34" cx="623.1794" cy="1082.4047" r="7.1498" gradientTransform="translate(0 -737.89)" gradientUnits="userSpaceOnUse"><stop offset="0" stop-color="#afbaf7"/><stop offset="0.3111" stop-color="#6d96ce"/><stop offset="0.8032" stop-color="#285fcc"/></radialGradient><radialGradient id="radial-gradient-35" cx="621.8295" cy="1084.6433" r="1.3799" gradientTransform="translate(0 -737.89)" gradientUnits="userSpaceOnUse"><stop offset="0" stop-color="#afbaf7"/><stop offset="0.3116" stop-color="#b898ce"/><stop offset="0.8032" stop-color="#515181"/></radialGradient><linearGradient id="linear-gradient-57" x1="621.554" y1="330.1555" x2="621.554" y2="364.327" xlink:href="#linear-gradient-2"/><radialGradient id="radial-gradient-36" cx="616.8332" cy="341.2962" r="23.1783" xlink:href="#radial-gradient-11"/><radialGradient id="radial-gradient-37" cx="688.9446" cy="1082.4047" r="7.1498" xlink:href="#radial-gradient-34"/><radialGradient id="radial-gradient-38" cx="687.5948" cy="1084.6433" r="1.3799" xlink:href="#radial-gradient-35"/><radialGradient id="radial-gradient-39" cx="705.31" cy="1082.4047" r="7.1498" xlink:href="#radial-gradient-34"/><radialGradient id="radial-gradient-40" cx="703.9602" cy="1084.6433" r="1.3799" xlink:href="#radial-gradient-35"/><linearGradient id="linear-gradient-58" x1="699.9669" y1="334.9752" x2="700.0761" y2="361.3626" xlink:href="#linear-gradient-2"/><radialGradient id="radial-gradient-41" cx="683.0213" cy="337.4096" r="16.6151" xlink:href="#radial-gradient-11"/><radialGradient id="radial-gradient-42" cx="711.6158" cy="337.194" r="10.4259" xlink:href="#radial-gradient-11"/><mask id="mask" x="693.3836" y="334.8211" width="13.2545" height="21.5374" maskUnits="userSpaceOnUse"><ellipse class="cls-1" cx="700.0109" cy="345.5898" rx="6.6272" ry="10.7687"/></mask><radialGradient id="radial-gradient-43" cx="692.6285" cy="336.7887" r="12.911" gradientTransform="translate(-434.3353) scale(1.6364 1)" gradientUnits="userSpaceOnUse"><stop offset="0" stop-color="#cacacc" stop-opacity="0"/><stop offset="0.0663" stop-color="#9a95a9" stop-opacity="0.1585"/><stop offset="0.1326" stop-color="#7b7192" stop-opacity="0.2636"/><stop offset="0.1883" stop-color="#70658a" stop-opacity="0.3"/><stop offset="0.1988" stop-color="#6f6589" stop-opacity="0.3174"/><stop offset="0.4049" stop-color="#665c7d" stop-opacity="0.6148"/><stop offset="0.6091" stop-color="#5f5675" stop-opacity="0.8285"/><stop offset="0.8091" stop-color="#5b5270" stop-opacity="0.9569"/><stop offset="1" stop-color="#5a516e"/></radialGradient><mask id="mask-2" x="696.1671" y="334.8211" width="5.6874" height="21.5374" maskUnits="userSpaceOnUse"><ellipse class="cls-2" cx="699.0108" cy="345.5898" rx="2.8437" ry="10.7687"/></mask><radialGradient id="radial-gradient-44" cx="868.0151" cy="263.3251" r="16.1761" gradientTransform="matrix(0.0178, 0.9997, -0.117, 0.0042, 714.3318, -524.4829)" gradientUnits="userSpaceOnUse"><stop offset="0" stop-color="#70658a" stop-opacity="0.6"/><stop offset="0.671" stop-color="#5a516e"/></radialGradient><linearGradient id="linear-gradient-59" x1="627.7321" y1="278.1158" x2="647.0996" y2="273.8294" gradientTransform="translate(-53.0938 151.3024) rotate(-11.5565)" gradientUnits="userSpaceOnUse"><stop offset="0" stop-color="#8776e3"/><stop offset="1" stop-color="#3a2c85"/></linearGradient><linearGradient id="linear-gradient-60" x1="578.9739" y1="342.4644" x2="588.4311" y2="325.5636" gradientTransform="matrix(1, 0, 0, 1, 0, 0)" xlink:href="#linear-gradient-59"/><linearGradient id="linear-gradient-61" x1="747.1512" y1="434.55" x2="755.9438" y2="416.0241" gradientUnits="userSpaceOnUse"><stop offset="0" stop-color="#3a2c85"/><stop offset="1" stop-color="#8776e3"/></linearGradient><linearGradient id="linear-gradient-62" x1="852.2036" y1="667.6177" x2="848.4479" y2="685.9266" gradientTransform="matrix(0.5, -0.866, 0.866, 0.5, 19.6843, 988.984)" gradientUnits="userSpaceOnUse"><stop offset="0" stop-color="#9d12b1"/><stop offset="0.999" stop-color="#29032f"/></linearGradient><linearGradient id="linear-gradient-63" x1="821.3793" y1="657.9011" x2="817.1542" y2="677.6183" xlink:href="#linear-gradient-62"/><linearGradient id="linear-gradient-64" x1="866.6747" y1="489.1286" x2="873.2471" y2="466.1251" xlink:href="#linear-gradient-62"/><linearGradient id="linear-gradient-65" x1="898.0527" y1="499.2406" x2="902.7472" y2="474.8288" xlink:href="#linear-gradient-62"/><mask id="mask-3" x="909.2597" y="493.215" width="141.478" height="141.478" maskUnits="userSpaceOnUse"><rect class="cls-3" x="946.3575" y="497.5551" width="67.2824" height="132.7977" transform="translate(-111.7407 858.142) rotate(-45)"/></mask><radialGradient id="radial-gradient-45" cx="947.6616" cy="582.8846" r="56.9317" gradientTransform="translate(1354.8106 1513.5012) rotate(-134.5649) scale(1 0.6848)" gradientUnits="userSpaceOnUse"><stop offset="0.1847" stop-color="#00031d" stop-opacity="0"/><stop offset="0.5081" stop-color="#00031d" stop-opacity="0.1123"/><stop offset="0.7731" stop-color="#00031d" stop-opacity="0.4625"/><stop offset="1" stop-color="#00031d"/></radialGradient><mask id="mask-4" x="912.9878" y="493.0469" width="138.8037" height="138.8037" maskUnits="userSpaceOnUse"><rect class="cls-4" x="950.1486" y="496.5407" width="64.482" height="131.816" transform="translate(-109.976 859.3918) rotate(-45)"/></mask><linearGradient id="linear-gradient-66" x1="926.5873" y1="604.5934" x2="977.6533" y2="575.7935" gradientTransform="translate(-92.0242 240.483) rotate(-15)" gradientUnits="userSpaceOnUse"><stop offset="0" stop-color="#00031d"/><stop offset="0.0499" stop-color="#00031d" stop-opacity="0.586"/><stop offset="0.1292" stop-color="#00031d" stop-opacity="0.148"/><stop offset="0.2041" stop-color="#00031d" stop-opacity="0"/><stop offset="0.3119" stop-color="#00031d" stop-opacity="0.0941"/><stop offset="0.3837" stop-color="#00031d" stop-opacity="0.3994"/><stop offset="0.4449" stop-color="#00031d" stop-opacity="0.9171"/><stop offset="0.4524" stop-color="#00031d"/><stop offset="0.5665" stop-color="#00031d"/><stop offset="0.5803" stop-color="#00031d" stop-opacity="0.8202"/><stop offset="0.631" stop-color="#00031d" stop-opacity="0.3537"/><stop offset="0.6949" stop-color="#00031d" stop-opacity="0.0806"/><stop offset="0.814" stop-color="#00031d" stop-opacity="0"/><stop offset="0.9074" stop-color="#00031d" stop-opacity="0.0762"/><stop offset="0.9532" stop-color="#00031d" stop-opacity="0.3384"/><stop offset="0.9885" stop-color="#00031d" stop-opacity="0.788"/><stop offset="1" stop-color="#00031d"/></linearGradient><mask id="mask-5" x="870.7978" y="430.757" width="83.5087" height="83.5087" maskUnits="userSpaceOnUse"><rect class="cls-5" x="897.4599" y="428.5541" width="30.1846" height="87.9146" transform="translate(-66.8357 783.6672) rotate(-45)"/></mask><linearGradient id="linear-gradient-67" x1="908.2587" y1="445.9007" x2="928.7782" y2="445.9007" gradientTransform="translate(-72.2319 791.1111) rotate(-45)" gradientUnits="userSpaceOnUse"><stop offset="0" stop-color="#29032f"/><stop offset="1" stop-color="#bb60c7"/></linearGradient><linearGradient id="linear-gradient-68" x1="908.2587" y1="451.3537" x2="931.1873" y2="451.3537" xlink:href="#linear-gradient-67"/><linearGradient id="linear-gradient-69" x1="908.2587" y1="458.2775" x2="933.734" y2="458.2775" xlink:href="#linear-gradient-67"/><linearGradient id="linear-gradient-70" x1="908.2587" y1="468.6882" x2="934.0417" y2="468.6882" xlink:href="#linear-gradient-67"/><linearGradient id="linear-gradient-71" x1="908.2587" y1="477.2213" x2="934.0417" y2="477.2213" xlink:href="#linear-gradient-67"/><linearGradient id="linear-gradient-72" x1="907.5919" y1="486.0225" x2="934.0492" y2="486.0225" xlink:href="#linear-gradient-67"/><linearGradient id="linear-gradient-73" x1="907.5919" y1="494.6898" x2="934.0492" y2="494.6898" xlink:href="#linear-gradient-67"/><linearGradient id="linear-gradient-74" x1="994.9786" y1="451.3537" x2="1017.7832" y2="451.3537" gradientTransform="matrix(-0.7071, 0.7071, 0.7071, 0.7071, 1291.7915, -572.9122)" xlink:href="#linear-gradient-67"/><linearGradient id="linear-gradient-75" x1="994.9711" y1="458.2775" x2="1020.3942" y2="458.2775" gradientTransform="matrix(-0.7071, 0.7071, 0.7071, 0.7071, 1291.7915, -572.9122)" xlink:href="#linear-gradient-67"/><linearGradient id="linear-gradient-76" x1="994.9786" y1="468.6882" x2="1020.7616" y2="468.6882" gradientTransform="matrix(-0.7071, 0.7071, 0.7071, 0.7071, 1291.7915, -572.9122)" xlink:href="#linear-gradient-67"/><linearGradient id="linear-gradient-77" x1="994.9806" y1="477.3552" x2="1020.7616" y2="477.3552" gradientTransform="matrix(-0.7071, 0.7071, 0.7071, 0.7071, 1291.7915, -572.9122)" xlink:href="#linear-gradient-67"/><linearGradient id="linear-gradient-78" x1="996.5753" y1="486.0225" x2="1020.7616" y2="486.0225" gradientTransform="matrix(-0.7071, 0.7071, 0.7071, 0.7071, 1291.7915, -572.9122)" xlink:href="#linear-gradient-67"/><linearGradient id="linear-gradient-79" x1="1001.8782" y1="494.6898" x2="1020.7616" y2="494.6898" gradientTransform="matrix(-0.7071, 0.7071, 0.7071, 0.7071, 1291.7915, -572.9122)" xlink:href="#linear-gradient-67"/><linearGradient id="linear-gradient-80" x1="994.9786" y1="445.9007" x2="1015.3763" y2="445.9007" gradientTransform="matrix(-0.7071, 0.7071, 0.7071, 0.7071, 1291.7915, -572.9122)" xlink:href="#linear-gradient-67"/><linearGradient id="linear-gradient-81" x1="994.9786" y1="440.657" x2="1011.9303" y2="440.657" gradientTransform="matrix(-0.7071, 0.7071, 0.7071, 0.7071, 1291.7915, -572.9122)" xlink:href="#linear-gradient-67"/><linearGradient id="linear-gradient-82" x1="894.5058" y1="440.7058" x2="911.1138" y2="440.7058" gradientTransform="translate(-62.507 781.3863) rotate(-45)" xlink:href="#linear-gradient-67"/><mask id="mask-6" x="845.1891" y="428.6805" width="114.6754" height="114.6754" maskUnits="userSpaceOnUse"><rect class="cls-6" x="869.0269" y="438.4304" width="66.9998" height="95.1757" transform="translate(-79.3228 780.5343) rotate(-45)"/></mask><radialGradient id="radial-gradient-46" cx="900.6102" cy="499.3641" r="43.5694" gradientTransform="translate(510.6829 -382.0169) rotate(45.6663) scale(1 0.6521)" gradientUnits="userSpaceOnUse"><stop offset="0" stop-color="#00031d" stop-opacity="0"/><stop offset="0.4112" stop-color="#00031d" stop-opacity="0.294"/><stop offset="1" stop-color="#00031d"/></radialGradient><mask id="mask-7" x="847.2351" y="429.3723" width="112.5847" height="112.5847" maskUnits="userSpaceOnUse"><rect class="cls-7" x="871.9009" y="437.6818" width="63.253" height="95.9659" transform="translate(-78.7798 781.1383) rotate(-45)"/></mask><linearGradient id="linear-gradient-83" x1="872.3171" y1="510.3627" x2="922.6356" y2="481.2807" xlink:href="#linear-gradient-66"/><mask id="mask-8" x="905.167" y="484.1082" width="37.971" height="37.971" maskUnits="userSpaceOnUse"><rect class="cls-8" x="906.0333" y="494.3634" width="36.2385" height="17.4606" transform="translate(-85.0629 800.8272) rotate(-45)"/></mask><radialGradient id="radial-gradient-47" cx="910.3637" cy="511.2667" r="14.8475" gradientTransform="translate(664.5185 -563.5411) rotate(42.9357) scale(1 1.1812)" gradientUnits="userSpaceOnUse"><stop offset="0.7108" stop-color="#c8c3f4" stop-opacity="0"/><stop offset="0.8427" stop-color="#c8c3f4" stop-opacity="0.4"/><stop offset="0.9793" stop-color="#c8c3f4" stop-opacity="0"/></radialGradient><mask id="mask-9" x="928.6576" y="509.1463" width="37.971" height="37.971" maskUnits="userSpaceOnUse"><rect class="cls-9" x="929.5238" y="519.4015" width="36.2385" height="17.4606" transform="translate(1991.1735 231.4925) rotate(135)"/></mask><radialGradient id="radial-gradient-48" cx="881.6244" cy="336.7685" r="14.8475" gradientTransform="translate(1326.6386 1424.2881) rotate(-137.0643) scale(1 1.1812)" xlink:href="#radial-gradient-47"/><linearGradient id="linear-gradient-84" x1="932.1871" y1="423.3163" x2="956.8971" y2="412.4148" gradientTransform="translate(65.8349 -360.6717) rotate(17.3398)" xlink:href="#linear-gradient-62"/><linearGradient id="linear-gradient-85" x1="838.1114" y1="350.3873" x2="866.4713" y2="312.7524" gradientTransform="matrix(0.9053, -0.4248, 0.5084, 1.0835, -62.4881, 312.7511)" gradientUnits="userSpaceOnUse"><stop offset="0" stop-color="#03363b"/><stop offset="1" stop-color="#e3c523"/></linearGradient><linearGradient id="linear-gradient-86" x1="863.5928" y1="378.4047" x2="901.6636" y2="372.7646" gradientTransform="matrix(0.7071, 0.8463, -0.7071, 0.8463, 514.0735, -767.9602)" xlink:href="#linear-gradient-85"/><linearGradient id="linear-gradient-87" x1="870.4559" y1="385.2082" x2="907.8768" y2="379.6644" gradientTransform="matrix(0.9996, 0.4658, -0.2807, 1.0665, 95.9341, -515.2122)" xlink:href="#linear-gradient-62"/><linearGradient id="linear-gradient-88" x1="889.9681" y1="424.551" x2="937.5509" y2="387.865" gradientTransform="translate(133.3776 -326.5645) rotate(17.3398)" xlink:href="#linear-gradient-62"/><linearGradient id="linear-gradient-89" x1="864.8799" y1="450.9458" x2="893.2398" y2="413.3109" gradientTransform="matrix(0.9053, -0.4248, 0.5084, 1.0835, -132.0601, 269.1688)" xlink:href="#linear-gradient-85"/><linearGradient id="linear-gradient-90" x1="953.6266" y1="430.5821" x2="991.6974" y2="424.942" gradientTransform="matrix(0.7071, 0.8463, -0.7071, 0.8463, 493.0884, -834.3095)" xlink:href="#linear-gradient-85"/><linearGradient id="linear-gradient-91" x1="1013.9948" y1="478.3927" x2="1013.4745" y2="441.8929" gradientTransform="matrix(0.9546, 0.298, -0.298, 0.9546, 63.8056, -370.1468)" xlink:href="#linear-gradient-62"/><linearGradient id="linear-gradient-92" x1="870.5026" y1="409.2522" x2="898.8625" y2="371.6173" xlink:href="#linear-gradient-85"/><linearGradient id="linear-gradient-93" x1="928.1206" y1="397.1244" x2="966.1914" y2="391.4843" gradientTransform="matrix(0.7071, 0.8463, -0.7071, 0.8463, 540.9319, -788.3901)" xlink:href="#linear-gradient-85"/><linearGradient id="linear-gradient-94" x1="934.9838" y1="403.928" x2="972.4046" y2="398.3842" gradientTransform="matrix(0.9996, 0.4658, -0.2807, 1.0665, 95.9341, -515.2122)" xlink:href="#linear-gradient-62"/><linearGradient id="linear-gradient-95" x1="886.4476" y1="429.277" x2="927.7864" y2="423.1527" gradientTransform="matrix(0.9996, 0.4658, -0.2807, 1.0665, 96.1283, -515.2211)" xlink:href="#linear-gradient-62"/><linearGradient id="linear-gradient-96" x1="952.9783" y1="347.382" x2="978.6332" y2="387.5855" gradientTransform="matrix(0.9376, 0.3476, -0.3476, 0.9376, 171.6994, -301.8766)" gradientUnits="userSpaceOnUse"><stop offset="0.0149" stop-color="#29032f"/><stop offset="0.084" stop-color="#34043c"/><stop offset="0.3861" stop-color="#610a6e"/><stop offset="0.6503" stop-color="#820e92"/><stop offset="0.8639" stop-color="#9611a9"/><stop offset="1" stop-color="#9d12b1"/></linearGradient></defs><title>R-HSA-1640170</title><g id="BG"><rect id="BG-2" data-name="BG" class="cls-10" width="1366" height="768"/><g id="CONTENT"><circle class="cls-11" cx="376.8905" cy="235.3826" r="24.8538"/><circle class="cls-12" cx="376.8907" cy="235.3826" r="24.8538"/><circle class="cls-13" cx="376.8907" cy="235.3826" r="24.8538"/><circle class="cls-14" cx="376.8905" cy="345.3895" r="24.8538"/><circle class="cls-15" cx="376.8905" cy="345.3895" r="24.8538"/><circle class="cls-16" cx="376.8905" cy="345.3895" r="24.8538"/><circle class="cls-17" cx="286.6225" cy="425.3946" r="24.8538"/><circle class="cls-18" cx="286.6225" cy="425.3946" r="24.8538"/><circle class="cls-19" cx="286.6225" cy="425.3946" r="24.8538"/><circle class="cls-20" cx="467.3159" cy="425.3946" r="24.8538"/><circle class="cls-21" cx="467.3159" cy="425.3946" r="24.8538"/><circle class="cls-22" cx="467.3159" cy="425.3946" r="24.8538"/><g id="R-ICO-013390"><ellipse class="cls-23" cx="232.1307" cy="516.3053" rx="24.8538" ry="14.4279" transform="translate(-331.8154 565.5051) rotate(-70.7773)"/><ellipse class="cls-24" cx="232.1307" cy="516.3053" rx="24.8538" ry="14.4279" transform="translate(-331.8154 565.5051) rotate(-70.7773)"/><ellipse class="cls-25" cx="232.1307" cy="516.3053" rx="24.8538" ry="14.4279" transform="translate(-331.8154 565.5051) rotate(-70.7773)"/><path class="cls-26" d="M228.368,540.1845a29.6163,29.6163,0,0,0-3.0988,5.4281,52.4649,52.4649,0,0,0-2.1328,6.3827,13.5751,13.5751,0,0,1-1.8007,3.9976,7.76,7.76,0,0,1-3.9246,2.8336l-.2486.0862-.0926.0275a2.2436,2.2436,0,0,0-.2175.0848,3.809,3.809,0,0,0-.5174.2989,8.9568,8.9568,0,0,0-1.1247.918,23.9587,23.9587,0,0,0-2.186,2.4236,121.45,121.45,0,0,0-7.7011,11.5326c-1.2247,1.9943-2.44,4.001-3.7021,5.9834-.6329.99-1.2755,1.9752-1.9563,2.9358a16.2432,16.2432,0,0,1-2.2622,2.7007,16.06,16.06,0,0,0,1.8986-2.9267c.553-1.0255,1.0669-2.0731,1.5712-3.1256,1.005-2.1074,1.9643-4.24,2.9389-6.3725a123.416,123.416,0,0,1,6.41-12.6969,27.58,27.58,0,0,1,2.1618-3.0733,13.0123,13.0123,0,0,1,1.4237-1.486,8.1309,8.1309,0,0,1,.9187-.7045c.1772-.1116.3551-.2222.557-.3245l.3085-.15.1536-.088a2.9977,2.9977,0,0,0,1.4387-1.499,9.7827,9.7827,0,0,0,.555-2.57,57.6694,57.6694,0,0,1,1.0918-7.26,37.0091,37.0091,0,0,1,2.61-7.3563l.0218-.046a4.0178,4.0178,0,1,1,7.264,3.4357A4.314,4.314,0,0,1,228.368,540.1845Z"/><path class="cls-27" d="M228.368,540.1845a29.6163,29.6163,0,0,0-3.0988,5.4281,52.4649,52.4649,0,0,0-2.1328,6.3827,13.5751,13.5751,0,0,1-1.8007,3.9976,7.76,7.76,0,0,1-3.9246,2.8336l-.2486.0862-.0926.0275a2.2436,2.2436,0,0,0-.2175.0848,3.809,3.809,0,0,0-.5174.2989,8.9568,8.9568,0,0,0-1.1247.918,23.9587,23.9587,0,0,0-2.186,2.4236,121.45,121.45,0,0,0-7.7011,11.5326c-1.2247,1.9943-2.44,4.001-3.7021,5.9834-.6329.99-1.2755,1.9752-1.9563,2.9358a16.2432,16.2432,0,0,1-2.2622,2.7007,16.06,16.06,0,0,0,1.8986-2.9267c.553-1.0255,1.0669-2.0731,1.5712-3.1256,1.005-2.1074,1.9643-4.24,2.9389-6.3725a123.416,123.416,0,0,1,6.41-12.6969,27.58,27.58,0,0,1,2.1618-3.0733,13.0123,13.0123,0,0,1,1.4237-1.486,8.1309,8.1309,0,0,1,.9187-.7045c.1772-.1116.3551-.2222.557-.3245l.3085-.15.1536-.088a2.9977,2.9977,0,0,0,1.4387-1.499,9.7827,9.7827,0,0,0,.555-2.57,57.6694,57.6694,0,0,1,1.0918-7.26,37.0091,37.0091,0,0,1,2.61-7.3563l.0218-.046a4.0178,4.0178,0,1,1,7.264,3.4357A4.314,4.314,0,0,1,228.368,540.1845Z"/><path class="cls-28" d="M228.368,540.1845a29.6163,29.6163,0,0,0-3.0988,5.4281,52.4649,52.4649,0,0,0-2.1328,6.3827,13.5751,13.5751,0,0,1-1.8007,3.9976,7.76,7.76,0,0,1-3.9246,2.8336l-.2486.0862-.0926.0275a2.2436,2.2436,0,0,0-.2175.0848,3.809,3.809,0,0,0-.5174.2989,8.9568,8.9568,0,0,0-1.1247.918,23.9587,23.9587,0,0,0-2.186,2.4236,121.45,121.45,0,0,0-7.7011,11.5326c-1.2247,1.9943-2.44,4.001-3.7021,5.9834-.6329.99-1.2755,1.9752-1.9563,2.9358a16.2432,16.2432,0,0,1-2.2622,2.7007,16.06,16.06,0,0,0,1.8986-2.9267c.553-1.0255,1.0669-2.0731,1.5712-3.1256,1.005-2.1074,1.9643-4.24,2.9389-6.3725a123.416,123.416,0,0,1,6.41-12.6969,27.58,27.58,0,0,1,2.1618-3.0733,13.0123,13.0123,0,0,1,1.4237-1.486,8.1309,8.1309,0,0,1,.9187-.7045c.1772-.1116.3551-.2222.557-.3245l.3085-.15.1536-.088a2.9977,2.9977,0,0,0,1.4387-1.499,9.7827,9.7827,0,0,0,.555-2.57,57.6694,57.6694,0,0,1,1.0918-7.26,37.0091,37.0091,0,0,1,2.61-7.3563l.0218-.046a4.0178,4.0178,0,1,1,7.264,3.4357A4.314,4.314,0,0,1,228.368,540.1845Z"/></g><g id="R-ICO-013390-2" data-name="R-ICO-013390"><ellipse class="cls-29" cx="523.149" cy="516.3053" rx="24.8538" ry="14.4279" transform="translate(-136.6122 840.298) rotate(-70.7773)"/><ellipse class="cls-30" cx="523.149" cy="516.3053" rx="24.8538" ry="14.4279" transform="translate(-136.6122 840.298) rotate(-70.7773)"/><ellipse class="cls-31" cx="523.149" cy="516.3053" rx="24.8538" ry="14.4279" transform="translate(-136.6122 840.298) rotate(-70.7773)"/><path class="cls-32" d="M518.9456,539.85a53.0815,53.0815,0,0,0-3.728,6.3546,18.713,18.713,0,0,0-1.9564,6.47c-.0618.5759-.0973,1.1906-.13,1.831l-.046.9957c-.0224.3609-.0148.6112-.0881,1.195a10.0584,10.0584,0,0,1-2.0541,4.8325,26.0643,26.0643,0,0,1-2.8813,3.2329c-.9884.968-1.9914,1.8692-2.9968,2.7508-2.011,1.7622-4.0308,3.4513-6.0305,5.1623-1.974,1.7086-4.0468,3.4233-5.8743,5.188a15.4675,15.4675,0,0,0-4.2434,6.1492,5.8965,5.8965,0,0,0,2.3339,6.6964,6.3933,6.3933,0,0,1-2.7718-2.8369,6.8738,6.8738,0,0,1-.5387-4.0744,16.8433,16.8433,0,0,1,3.7362-7.2753c1.7149-2.1309,3.4928-4.0166,5.2693-6,1.7758-1.9581,3.5727-3.896,5.2973-5.8437a37.2429,37.2429,0,0,0,4.51-5.8764,4.7746,4.7746,0,0,0,.7552-2.4448c.0115-.0709-.0238-.48-.0469-.7768l-.0787-.9783c-.0514-.6755-.1012-1.3774-.118-2.1169a25.2492,25.2492,0,0,1,1.4475-8.8629,60.0588,60.0588,0,0,1,3.3056-7.7712,4.0081,4.0081,0,1,1,7.184,3.5568A4.4592,4.4592,0,0,1,518.9456,539.85Z"/><path class="cls-33" d="M518.9456,539.85a53.0815,53.0815,0,0,0-3.728,6.3546,18.713,18.713,0,0,0-1.9564,6.47c-.0618.5759-.0973,1.1906-.13,1.831l-.046.9957c-.0224.3609-.0148.6112-.0881,1.195a10.0584,10.0584,0,0,1-2.0541,4.8325,26.0643,26.0643,0,0,1-2.8813,3.2329c-.9884.968-1.9914,1.8692-2.9968,2.7508-2.011,1.7622-4.0308,3.4513-6.0305,5.1623-1.974,1.7086-4.0468,3.4233-5.8743,5.188a15.4675,15.4675,0,0,0-4.2434,6.1492,5.8965,5.8965,0,0,0,2.3339,6.6964,6.3933,6.3933,0,0,1-2.7718-2.8369,6.8738,6.8738,0,0,1-.5387-4.0744,16.8433,16.8433,0,0,1,3.7362-7.2753c1.7149-2.1309,3.4928-4.0166,5.2693-6,1.7758-1.9581,3.5727-3.896,5.2973-5.8437a37.2429,37.2429,0,0,0,4.51-5.8764,4.7746,4.7746,0,0,0,.7552-2.4448c.0115-.0709-.0238-.48-.0469-.7768l-.0787-.9783c-.0514-.6755-.1012-1.3774-.118-2.1169a25.2492,25.2492,0,0,1,1.4475-8.8629,60.0588,60.0588,0,0,1,3.3056-7.7712,4.0081,4.0081,0,1,1,7.184,3.5568A4.4592,4.4592,0,0,1,518.9456,539.85Z"/><path class="cls-34" d="M518.9456,539.85a53.0815,53.0815,0,0,0-3.728,6.3546,18.713,18.713,0,0,0-1.9564,6.47c-.0618.5759-.0973,1.1906-.13,1.831l-.046.9957c-.0224.3609-.0148.6112-.0881,1.195a10.0584,10.0584,0,0,1-2.0541,4.8325,26.0643,26.0643,0,0,1-2.8813,3.2329c-.9884.968-1.9914,1.8692-2.9968,2.7508-2.011,1.7622-4.0308,3.4513-6.0305,5.1623-1.974,1.7086-4.0468,3.4233-5.8743,5.188a15.4675,15.4675,0,0,0-4.2434,6.1492,5.8965,5.8965,0,0,0,2.3339,6.6964,6.3933,6.3933,0,0,1-2.7718-2.8369,6.8738,6.8738,0,0,1-.5387-4.0744,16.8433,16.8433,0,0,1,3.7362-7.2753c1.7149-2.1309,3.4928-4.0166,5.2693-6,1.7758-1.9581,3.5727-3.896,5.2973-5.8437a37.2429,37.2429,0,0,0,4.51-5.8764,4.7746,4.7746,0,0,0,.7552-2.4448c.0115-.0709-.0238-.48-.0469-.7768l-.0787-.9783c-.0514-.6755-.1012-1.3774-.118-2.1169a25.2492,25.2492,0,0,1,1.4475-8.8629,60.0588,60.0588,0,0,1,3.3056-7.7712,4.0081,4.0081,0,1,1,7.184,3.5568A4.4592,4.4592,0,0,1,518.9456,539.85Z"/></g><g id="R-ICO-013390-3" data-name="R-ICO-013390"><ellipse class="cls-35" cx="413.1421" cy="516.3053" rx="24.8538" ry="14.4279" transform="translate(-210.4003 736.4244) rotate(-70.7773)"/><ellipse class="cls-36" cx="413.1421" cy="516.3053" rx="24.8538" ry="14.4279" transform="translate(-210.4003 736.4244) rotate(-70.7773)"/><ellipse class="cls-37" cx="413.1421" cy="516.3053" rx="24.8538" ry="14.4279" transform="translate(-210.4003 736.4244) rotate(-70.7773)"/><path class="cls-38" d="M408.6478,540.299c-2.7048,3.9942-5.657,7.5912-8.41,11.15-2.7284,3.5587-5.32,7.1219-6.71,11.0339a17.0388,17.0388,0,0,0-.7426,2.9823l-.1659,1.5806c-.0784.6525-.1173,1.31-.2454,1.94a17.26,17.26,0,0,1-3.1222,6.6574,38.1881,38.1881,0,0,1-10.3308,9.2576,37.2373,37.2373,0,0,0,8.6363-10.32,14.7729,14.7729,0,0,0,1.8456-6.01c.0255-.4993-.0312-.9911-.0332-1.4768l-.0776-1.8446a20.7346,20.7346,0,0,1,.3633-3.7679c.9872-4.9553,3.3249-9.2733,5.5714-13.3318,2.2892-4.0585,4.61-7.9368,6.4927-11.85a4.0113,4.0113,0,1,1,6.9494,3.97Z"/><path class="cls-39" d="M408.6478,540.299c-2.7048,3.9942-5.657,7.5912-8.41,11.15-2.7284,3.5587-5.32,7.1219-6.71,11.0339a17.0388,17.0388,0,0,0-.7426,2.9823l-.1659,1.5806c-.0784.6525-.1173,1.31-.2454,1.94a17.26,17.26,0,0,1-3.1222,6.6574,38.1881,38.1881,0,0,1-10.3308,9.2576,37.2373,37.2373,0,0,0,8.6363-10.32,14.7729,14.7729,0,0,0,1.8456-6.01c.0255-.4993-.0312-.9911-.0332-1.4768l-.0776-1.8446a20.7346,20.7346,0,0,1,.3633-3.7679c.9872-4.9553,3.3249-9.2733,5.5714-13.3318,2.2892-4.0585,4.61-7.9368,6.4927-11.85a4.0113,4.0113,0,1,1,6.9494,3.97Z"/><path class="cls-40" d="M408.6478,540.299c-2.7048,3.9942-5.657,7.5912-8.41,11.15-2.7284,3.5587-5.32,7.1219-6.71,11.0339a17.0388,17.0388,0,0,0-.7426,2.9823l-.1659,1.5806c-.0784.6525-.1173,1.31-.2454,1.94a17.26,17.26,0,0,1-3.1222,6.6574,38.1881,38.1881,0,0,1-10.3308,9.2576,37.2373,37.2373,0,0,0,8.6363-10.32,14.7729,14.7729,0,0,0,1.8456-6.01c.0255-.4993-.0312-.9911-.0332-1.4768l-.0776-1.8446a20.7346,20.7346,0,0,1,.3633-3.7679c.9872-4.9553,3.3249-9.2733,5.5714-13.3318,2.2892-4.0585,4.61-7.9368,6.4927-11.85a4.0113,4.0113,0,1,1,6.9494,3.97Z"/></g><g id="R-ICO-013390-4" data-name="R-ICO-013390"><ellipse class="cls-41" cx="343.1377" cy="516.3053" rx="24.8538" ry="14.4279" transform="translate(-257.3564 670.323) rotate(-70.7773)"/><ellipse class="cls-42" cx="343.1377" cy="516.3053" rx="24.8538" ry="14.4279" transform="translate(-257.3564 670.323) rotate(-70.7773)"/><ellipse class="cls-43" cx="343.1377" cy="516.3053" rx="24.8538" ry="14.4279" transform="matrix(0.3292, -0.9442, 0.9442, 0.3292, -257.3564, 670.323)"/><path class="cls-44" d="M338.0016,540.6187a63.2243,63.2243,0,0,0-6.9159,12.1519c-.1986.51-.3681,1.018-.512,1.5052l-.192.72-.2824,1.1564a14.7359,14.7359,0,0,1-1.9367,4.0848,30.4677,30.4677,0,0,1-5.4965,5.8671c-1.9551,1.6666-3.9556,3.1795-5.94,4.681l-2.9616,2.2469c-.4507.3744-.8933.7356-1.3284,1.1215a15.2487,15.2487,0,0,0-1.172,1.266,12.2951,12.2951,0,0,0-1.812,2.9631,18.5287,18.5287,0,0,0-1.0509,3.4425c-.2661,1.1966-.4551,2.4332-.7685,3.6564a7.8732,7.8732,0,0,1-1.6355,3.3662,7.6273,7.6273,0,0,0,1.1443-3.46c.1429-1.2158.1648-2.4539.27-3.7089a19.77,19.77,0,0,1,.6246-3.7926,14.0672,14.0672,0,0,1,1.5933-3.62,17.2862,17.2862,0,0,1,1.1495-1.6355c.4278-.5019.8871-.9946,1.3328-1.4752l2.6491-2.6377c1.761-1.7483,3.5086-3.4872,5.1112-5.2771a26.1094,26.1094,0,0,0,3.9829-5.5435,9.3648,9.3648,0,0,0,.8807-2.765l.0685-.67.13-1.112c.1064-.7252.2418-1.4228.4022-2.0979a50.7377,50.7377,0,0,1,2.55-7.5609c1.0094-2.42,2.064-4.7011,3.3128-7.0835a4.01,4.01,0,1,1,6.8553,4.1351Z"/><path class="cls-45" d="M338.0016,540.6187a63.2243,63.2243,0,0,0-6.9159,12.1519c-.1986.51-.3681,1.018-.512,1.5052l-.192.72-.2824,1.1564a14.7359,14.7359,0,0,1-1.9367,4.0848,30.4677,30.4677,0,0,1-5.4965,5.8671c-1.9551,1.6666-3.9556,3.1795-5.94,4.681l-2.9616,2.2469c-.4507.3744-.8933.7356-1.3284,1.1215a15.2487,15.2487,0,0,0-1.172,1.266,12.2951,12.2951,0,0,0-1.812,2.9631,18.5287,18.5287,0,0,0-1.0509,3.4425c-.2661,1.1966-.4551,2.4332-.7685,3.6564a7.8732,7.8732,0,0,1-1.6355,3.3662,7.6273,7.6273,0,0,0,1.1443-3.46c.1429-1.2158.1648-2.4539.27-3.7089a19.77,19.77,0,0,1,.6246-3.7926,14.0672,14.0672,0,0,1,1.5933-3.62,17.2862,17.2862,0,0,1,1.1495-1.6355c.4278-.5019.8871-.9946,1.3328-1.4752l2.6491-2.6377c1.761-1.7483,3.5086-3.4872,5.1112-5.2771a26.1094,26.1094,0,0,0,3.9829-5.5435,9.3648,9.3648,0,0,0,.8807-2.765l.0685-.67.13-1.112c.1064-.7252.2418-1.4228.4022-2.0979a50.7377,50.7377,0,0,1,2.55-7.5609c1.0094-2.42,2.064-4.7011,3.3128-7.0835a4.01,4.01,0,1,1,6.8553,4.1351Z"/><path class="cls-46" d="M338.0016,540.6187a63.2243,63.2243,0,0,0-6.9159,12.1519c-.1986.51-.3681,1.018-.512,1.5052l-.192.72-.2824,1.1564a14.7359,14.7359,0,0,1-1.9367,4.0848,30.4677,30.4677,0,0,1-5.4965,5.8671c-1.9551,1.6666-3.9556,3.1795-5.94,4.681l-2.9616,2.2469c-.4507.3744-.8933.7356-1.3284,1.1215a15.2487,15.2487,0,0,0-1.172,1.266,12.2951,12.2951,0,0,0-1.812,2.9631,18.5287,18.5287,0,0,0-1.0509,3.4425c-.2661,1.1966-.4551,2.4332-.7685,3.6564a7.8732,7.8732,0,0,1-1.6355,3.3662,7.6273,7.6273,0,0,0,1.1443-3.46c.1429-1.2158.1648-2.4539.27-3.7089a19.77,19.77,0,0,1,.6246-3.7926,14.0672,14.0672,0,0,1,1.5933-3.62,17.2862,17.2862,0,0,1,1.1495-1.6355c.4278-.5019.8871-.9946,1.3328-1.4752l2.6491-2.6377c1.761-1.7483,3.5086-3.4872,5.1112-5.2771a26.1094,26.1094,0,0,0,3.9829-5.5435,9.3648,9.3648,0,0,0,.8807-2.765l.0685-.67.13-1.112c.1064-.7252.2418-1.4228.4022-2.0979a50.7377,50.7377,0,0,1,2.55-7.5609c1.0094-2.42,2.064-4.7011,3.3128-7.0835a4.01,4.01,0,1,1,6.8553,4.1351Z"/></g><g id="CYCLE"><path class="cls-47" d="M726.0785,321.6827a83.2859,83.2859,0,0,0-117.6506,0l-2.8566-14.6843-14.9827-3.155a108.5433,108.5433,0,0,1,153.3292,0l-3.16,14.9819Z"/><path class="cls-48" d="M590.5886,457.1727a108.5435,108.5435,0,0,1,0-153.33l14.9827,3.155,2.8566,14.6843a83.2864,83.2864,0,0,0,0,117.651l-14.6839,2.8514Z"/><path class="cls-49" d="M743.9182,457.1727a108.5436,108.5436,0,0,1-153.33,0l3.1554-14.988,14.6839-2.8514a83.2862,83.2862,0,0,0,117.651,0l2.8518,14.6787Z"/><path class="cls-50" d="M743.9178,303.8434a108.5434,108.5434,0,0,1,0,153.3293l-14.9875-3.1607-2.8518-14.6787a83.2859,83.2859,0,0,0,0-117.6506l14.68-2.8574Z"/><text class="cls-51" transform="translate(637.6011 290.5687)">M PHASE</text><text class="cls-51" transform="translate(638.5972 478.9778)">S PHASE</text><text class="cls-51" transform="translate(756.5811 347.2769) rotate(90)">G1 PHASE</text><text class="cls-51" transform="translate(578.8748 407.9619) rotate(-90)">G2 PHASE</text></g></g><g id="TEXT_DM"><text class="cls-52" transform="translate(449.1718 267.817)">Spindle Assembly Checkpoint</text><text class="cls-52" transform="translate(479.02 320.4712)">G2 Checkpoint</text><text class="cls-52" transform="translate(764.0098 440.3521)">G1 Checkpoint</text><text class="cls-53" transform="translate(305.2606 205.3807)">MATERNAL</text><text class="cls-53" transform="translate(380.4215 205.3807)">PATERNAL</text><text class="cls-53" transform="translate(1048.0353 577.8407)">TELOMERE</text></g><g id="ARROWS"><g id="R-ICO-012348"><polygon class="cls-54" points="385.048 300.035 376.891 310.535 368.733 300.035 385.048 300.035"/><line class="cls-55" x1="376.8907" y1="300.7847" x2="376.8907" y2="270.237"/></g><g id="R-ICO-012348-2" data-name="R-ICO-012348"><polygon class="cls-54" points="334.74 402.843 321.453 403.344 324.253 390.346 334.74 402.843"/><line class="cls-56" x1="328.9223" y1="397.0765" x2="352.3232" y2="377.4408"/></g><g id="R-ICO-012348-3" data-name="R-ICO-012348"><polygon class="cls-54" points="429.528 390.346 432.328 403.344 419.041 402.843 429.528 390.346"/><line class="cls-57" x1="424.8591" y1="397.0765" x2="401.4582" y2="377.4408"/></g><g id="R-ICO-012348-4" data-name="R-ICO-012348"><polygon class="cls-54" points="318.84 477.623 318.181 490.903 305.476 486.98 318.84 477.623"/><line class="cls-58" x1="312.5882" y1="482.9158" x2="295.0668" y2="457.8925"/></g><g id="R-ICO-012348-5" data-name="R-ICO-012348"><polygon class="cls-54" points="267.769 486.98 255.064 490.903 254.405 477.623 267.769 486.98"/><line class="cls-59" x1="260.6568" y1="482.9158" x2="278.1782" y2="457.8925"/></g><g id="R-ICO-012348-6" data-name="R-ICO-012348"><polygon class="cls-54" points="499.534 477.623 498.874 490.903 486.17 486.98 499.534 477.623"/><line class="cls-60" x1="493.2816" y1="482.9158" x2="475.7601" y2="457.8925"/></g><g id="R-ICO-012348-7" data-name="R-ICO-012348"><polygon class="cls-54" points="448.462 486.98 435.758 490.903 435.098 477.623 448.462 486.98"/><line class="cls-61" x1="441.3502" y1="482.9158" x2="458.8716" y2="457.8925"/></g><g id="R-ICO-012348-8" data-name="R-ICO-012348"><polygon class="cls-54" points="654.753 334.592 665.253 342.75 654.753 350.907 654.753 334.592"/><line class="cls-62" x1="655.5028" y1="342.7496" x2="642.3007" y2="342.7496"/></g><g id="R-ICO-012348-9" data-name="R-ICO-012348"><polygon class="cls-54" points="921.031 421.98 912.874 432.48 904.717 421.98 921.031 421.98"/><path class="cls-63" d="M912.8739,422.73c0-12.1832-.898-21.0428-6.77-30.53"/></g><g id="R-ICO-012348-10" data-name="R-ICO-012348"><polygon class="cls-54" points="610.37 475.07 612.13 462.658 623.721 467.432 610.37 475.07"/><path class="cls-64" d="M871.87,511.0742a86.281,86.281,0,0,1-15.6928,10.9535c-83.2961,46.41-198.7888,21.1144-239.4828-51.39"/></g><g id="R-ICO-012348-11" data-name="R-ICO-012348"><polygon class="cls-54" points="819.236 315.988 827.578 325.346 816.448 331.115 819.236 315.988"/><path class="cls-65" d="M818.5372,323.68c-21.3406-3.9337-43.66-.5384-68.2935,10.7046"/></g><g id="R-ICO-012345"><polygon class="cls-54" points="402.152 228.415 389.713 229.977 391.275 217.538 402.152 228.415"/><line class="cls-66" x1="396.2539" y1="223.4365" x2="406.2578" y2="213.4325"/></g><g id="R-ICO-012345-2" data-name="R-ICO-012345"><polygon class="cls-54" points="362.506 217.538 364.068 229.977 351.629 228.415 362.506 217.538"/><line class="cls-66" x1="357.5271" y1="223.4365" x2="347.5232" y2="213.4325"/></g></g><g id="LOGO" class="cls-67"><path class="cls-68" d="M1033.1207,182.438a.4222.4222,0,0,1-.0161.1289.4266.4266,0,0,1-.1531.25.4879.4879,0,0,1-.2818.0724,2.8713,2.8713,0,0,1-.3787-.0321,3.0056,3.0056,0,0,0-1.8282.3061,2.4932,2.4932,0,0,0-.9826.9342,2.5662,2.5662,0,0,0-.3542,1.3369v4.8968a.4849.4849,0,0,1-.1289.3462.463.463,0,0,1-.3544.1369.4682.4682,0,0,1-.4833-.4831v-7.8445a.4634.4634,0,0,1,.1369-.3544.4858.4858,0,0,1,.3464-.1289.4459.4459,0,0,1,.4833.4833v.9987a3.4194,3.4194,0,0,1,1.1919-1.16,3.1014,3.1014,0,0,1,1.5785-.4189Q1033.12,181.9064,1033.1207,182.438Z"/><path class="cls-68" d="M1040.0066,182.4784a3.8353,3.8353,0,0,1,1.4417,1.5381,4.7512,4.7512,0,0,1,.5154,2.239.4309.4309,0,0,1-.1289.33.4747.4747,0,0,1-.3384.1208h-6.7491a3.5924,3.5924,0,0,0,.4994,1.7,3.1864,3.1864,0,0,0,1.2082,1.1677,3.432,3.432,0,0,0,1.6913.4188,3.8939,3.8939,0,0,0,1.2644-.2173,2.6978,2.6978,0,0,0,1.0067-.572.5347.5347,0,0,1,.3384-.1289.4239.4239,0,0,1,.3221.741,4.0848,4.0848,0,0,1-1.3451.7733,4.58,4.58,0,0,1-1.5865.3061,4.442,4.442,0,0,1-2.2633-.572,4.0693,4.0693,0,0,1-1.5542-1.5946,4.7031,4.7031,0,0,1-.564-2.3114,5.0359,5.0359,0,0,1,.5236-2.3277,3.9,3.9,0,0,1,1.4657-1.5946,4.0645,4.0645,0,0,1,2.1505-.5717A4.0065,4.0065,0,0,1,1040.0066,182.4784Zm-4.22,1.1839a3.5438,3.5438,0,0,0-1.0227,2.2067h6.2658a3.36,3.36,0,0,0-.9666-2.2067,2.9557,2.9557,0,0,0-2.1583-.8377A2.9227,2.9227,0,0,0,1035.7863,183.6623Z"/><path class="cls-68" d="M1050.05,182.4944a4.2653,4.2653,0,0,1,1.6188,1.6189,4.5653,4.5653,0,0,1,.5881,2.3034v3.9142a.4849.4849,0,0,1-.1289.3462.4628.4628,0,0,1-.3544.1369.4686.4686,0,0,1-.4833-.4831v-1.2566a3.7451,3.7451,0,0,1-1.4577,1.3451,4.347,4.347,0,0,1-2.07.4913,4.5631,4.5631,0,0,1-2.3034-.588,4.2574,4.2574,0,0,1-1.6188-1.6188,4.7732,4.7732,0,0,1,0-4.5906,4.2625,4.2625,0,0,1,1.6188-1.6189,4.7739,4.7739,0,0,1,4.5906,0Zm-.4831,7.0472a3.3519,3.3519,0,0,0,1.2644-1.2887,3.9027,3.9027,0,0,0,0-3.6726,3.4114,3.4114,0,0,0-1.2644-1.2965,3.5383,3.5383,0,0,0-4.8808,1.2965,3.8438,3.8438,0,0,0,0,3.6726,3.4083,3.4083,0,0,0,1.2727,1.2887,3.7181,3.7181,0,0,0,3.6081,0Z"/><path class="cls-68" d="M1056.3317,190.3227a4.2088,4.2088,0,0,1-1.5705-1.6188,4.6314,4.6314,0,0,1-.572-2.2872,4.902,4.902,0,0,1,.5317-2.2954,4.05,4.05,0,0,1,1.4819-1.6108,3.9606,3.9606,0,0,1,2.1262-.5878,4.3651,4.3651,0,0,1,1.8846.4026,4.1459,4.1459,0,0,1,1.482,1.1919.514.514,0,0,1,.1127.274.3939.3939,0,0,1-.2255.3542.3853.3853,0,0,1-.2577.0967.4442.4442,0,0,1-.37-.1932,3.2826,3.2826,0,0,0-2.6256-1.2243,2.98,2.98,0,0,0-2.7786,1.74,4.2242,4.2242,0,0,0-.3946,1.8525,3.8619,3.8619,0,0,0,.4349,1.8362,3.2506,3.2506,0,0,0,1.208,1.2887,3.358,3.358,0,0,0,1.772.467,3.2138,3.2138,0,0,0,2.2711-.7891.4636.4636,0,0,1,.3384-.1452.3938.3938,0,0,1,.29.1128.46.46,0,0,1,.1611.3545.3675.3675,0,0,1-.1288.29,4.002,4.002,0,0,1-1.3208.7974,4.5859,4.5859,0,0,1-1.6108.2819A4.3264,4.3264,0,0,1,1056.3317,190.3227Z"/><path class="cls-68" d="M1068.5653,189.9685a.4907.4907,0,0,1,.1368.3624.47.47,0,0,1-.1368.3462.49.49,0,0,1-.3625.1369h-.37a3.0812,3.0812,0,0,1-1.5785-.4026,2.8409,2.8409,0,0,1-1.0794-1.1034,3.2292,3.2292,0,0,1-.3865-1.5866v-4.5263h-1.2564a.4351.4351,0,1,1,0-.87h1.2564V179.7a.4906.4906,0,0,1,.1369-.3625.47.47,0,0,1,.3464-.1368.47.47,0,0,1,.4993.4993v2.6256h2.1262a.4351.4351,0,1,1,0,.87h-2.1262v4.5263a2.0748,2.0748,0,0,0,.58,1.5221,2.0124,2.0124,0,0,0,1.4981.5879h.3544A.4907.4907,0,0,1,1068.5653,189.9685Z"/><path class="cls-68" d="M1072.4391,190.3227a4.2574,4.2574,0,0,1-1.6188-1.6188,4.7739,4.7739,0,0,1,0-4.5906,4.2625,4.2625,0,0,1,1.6188-1.6189,4.7739,4.7739,0,0,1,4.5906,0,4.2663,4.2663,0,0,1,1.6189,1.6189,4.7739,4.7739,0,0,1,0,4.5906,4.2611,4.2611,0,0,1-1.6189,1.6188,4.7739,4.7739,0,0,1-4.5906,0Zm4.1075-.7811a3.3519,3.3519,0,0,0,1.2644-1.2887,3.9027,3.9027,0,0,0,0-3.6726,3.4114,3.4114,0,0,0-1.2644-1.2965,3.5383,3.5383,0,0,0-4.8808,1.2965,3.8438,3.8438,0,0,0,0,3.6726,3.4083,3.4083,0,0,0,1.2727,1.2887,3.7181,3.7181,0,0,0,3.6081,0Z"/><path class="cls-68" d="M1092.67,182.3736a3.2332,3.2332,0,0,1,1.1759,1.3449,4.4249,4.4249,0,0,1,.4186,1.9572v4.6552a.4844.4844,0,0,1-.1288.3462.4625.4625,0,0,1-.3543.1369.4681.4681,0,0,1-.4832-.4831v-4.6552a3.0577,3.0577,0,0,0-.66-2.03,2.1078,2.1078,0,0,0-1.6913-.7891,2.3753,2.3753,0,0,0-1.82.741,2.6535,2.6535,0,0,0-.6605,1.965v4.768a.4844.4844,0,0,1-.1288.3462.4624.4624,0,0,1-.3542.1369.4681.4681,0,0,1-.4833-.4831v-4.6552a3.0571,3.0571,0,0,0-.6605-2.03,2.1077,2.1077,0,0,0-1.6913-.7891,2.4282,2.4282,0,0,0-2.5288,2.5449v4.9291a.4849.4849,0,0,1-.1289.3462.463.463,0,0,1-.3544.1369.4682.4682,0,0,1-.4833-.4831v-7.8445a.4634.4634,0,0,1,.1369-.3544.4858.4858,0,0,1,.3464-.1289.4459.4459,0,0,1,.4833.4833v.6282a3.124,3.124,0,0,1,1.1114-.9021,3.1914,3.1914,0,0,1,1.4174-.3222,3.1163,3.1163,0,0,1,1.6752.4592,3.2981,3.2981,0,0,1,1.1759,1.2644,3.2206,3.2206,0,0,1,1.208-1.2644,3.3434,3.3434,0,0,1,1.74-.4592A3.1351,3.1351,0,0,1,1092.67,182.3736Z"/><path class="cls-68" d="M1102.7615,182.4784a3.835,3.835,0,0,1,1.4416,1.5381,4.75,4.75,0,0,1,.5154,2.239.4312.4312,0,0,1-.1288.33.4747.4747,0,0,1-.3384.1208h-6.7491a3.5923,3.5923,0,0,0,.4993,1.7,3.1878,3.1878,0,0,0,1.2082,1.1677,3.4323,3.4323,0,0,0,1.6913.4188,3.893,3.893,0,0,0,1.2644-.2173,2.6962,2.6962,0,0,0,1.0067-.572.5347.5347,0,0,1,.3384-.1289.4239.4239,0,0,1,.3221.741,4.0848,4.0848,0,0,1-1.3451.7733,4.58,4.58,0,0,1-1.5865.3061,4.442,4.442,0,0,1-2.2633-.572,4.07,4.07,0,0,1-1.5542-1.5946,4.7031,4.7031,0,0,1-.5639-2.3114,5.0346,5.0346,0,0,1,.5236-2.3277,3.8994,3.8994,0,0,1,1.4657-1.5946,4.0645,4.0645,0,0,1,2.15-.5717A4.0067,4.0067,0,0,1,1102.7615,182.4784Zm-4.22,1.1839a3.5439,3.5439,0,0,0-1.0228,2.2067h6.2659a3.36,3.36,0,0,0-.9666-2.2067,2.9559,2.9559,0,0,0-2.1583-.8377A2.9225,2.9225,0,0,0,1098.5412,183.6623Z"/><polygon class="cls-69" points="1014.765 177.322 1014.765 173.455 1004.719 179.255 1004.719 190.856 1008.067 188.922 1008.067 181.189 1014.765 177.322"/><polygon class="cls-70" points="1008.067 188.922 1008.067 192.789 1011.416 190.856 1011.416 186.989 1008.067 188.922"/><polygon class="cls-70" points="1018.113 179.255 1018.113 175.389 1014.765 177.322 1014.765 181.189 1018.113 179.255"/><polygon class="cls-71" points="1011.416 183.122 1014.765 181.189 1014.765 177.322 1008.067 181.189 1008.067 188.922 1011.416 186.989 1011.416 183.122"/><polygon class="cls-72" points="1018.113 186.989 1018.113 186.989 1018.113 190.856 1021.462 188.922 1021.462 185.056 1018.113 186.989 1018.113 186.989"/><polygon class="cls-72" points="1021.462 181.189 1021.462 177.322 1018.113 179.255 1018.113 183.122 1021.462 181.189"/><polygon class="cls-72" points="1011.416 190.856 1011.416 194.722 1014.765 192.789 1014.765 188.922 1011.416 190.856"/><polygon class="cls-73" points="1014.765 185.056 1018.113 183.122 1018.113 179.255 1014.765 181.189 1014.765 185.056 1011.416 186.989 1011.416 190.856 1014.765 188.922 1014.765 185.056"/><polygon class="cls-68" points="1011.416 183.122 1011.416 186.989 1014.765 185.056 1014.765 181.189 1011.416 183.122"/><polygon class="cls-68" points="1021.462 181.189 1018.113 183.122 1014.765 185.056 1014.765 188.922 1014.765 192.789 1014.765 196.656 1018.113 194.722 1018.113 190.856 1018.113 186.989 1018.113 186.989 1018.113 186.989 1021.462 185.056 1024.811 183.122 1024.811 179.255 1021.462 181.189"/></g></g><g id="REGION-R-HSA-1500620"><polygon id="MASK-10" data-name="MASK" class="cls-74" points="557.811 457.892 475.76 356.359 448.545 287.176 448.545 0 0 0 181.81 457.892 0 768 557.811 768 557.811 457.892"/><g id="R-ICO-012565"><path class="cls-75" d="M371.89,231.5909a2,2,0,0,1-2-2v-9.9741a2,2,0,0,1,4,0v9.9741A2,2,0,0,1,371.89,231.5909Z"/><path class="cls-76" d="M371.89,251.4337a2,2,0,0,1-2-2V233.5909a2,2,0,0,1,4,0v15.8428A2,2,0,0,1,371.89,251.4337Z"/></g><g id="R-ICO-012564"><path class="cls-77" d="M381.891,231.5909a2,2,0,0,1-2-2v-9.9741a2,2,0,0,1,4,0v9.9741A2,2,0,0,1,381.891,231.5909Z"/><path class="cls-78" d="M381.891,251.4337a2,2,0,0,1-2-2V233.5909a2,2,0,1,1,4,0v15.8428A2,2,0,0,1,381.891,251.4337Z"/></g><g id="R-ICO-012565-2" data-name="R-ICO-012565"><path class="cls-79" d="M369.891,341.5719a3.9394,3.9394,0,0,0-3.9229,4v13.8928a2.0006,2.0006,0,0,0,4.0011-.0242V345.5719a1.7847,1.7847,0,0,1,1,0v13.8686a2.0006,2.0006,0,0,0,4.0011.0242V345.5719a3.9394,3.9394,0,0,0-3.9229-4Z"/><path class="cls-80" d="M370.9687,341.5719a4.0046,4.0046,0,0,0,4-4l.0011-7.9858a1.9694,1.9694,0,0,0-2.0011-1.9625,2,2,0,0,0-2,2v7.9483a1.8016,1.8016,0,0,1-1,0v-7.9483a2,2,0,0,0-2-2,1.9694,1.9694,0,0,0-2.0011,1.9625l.0011,7.9858a4.0045,4.0045,0,0,0,4,4Z"/></g><g id="R-ICO-012564-2" data-name="R-ICO-012564"><path class="cls-81" d="M382.8915,341.5719a3.9394,3.9394,0,0,0-3.923,4v13.8928a2.0006,2.0006,0,0,0,4.0011-.0242V345.5719a1.7847,1.7847,0,0,1,1,0v13.8686a2.0007,2.0007,0,0,0,4.0012.0242V345.5719a3.94,3.94,0,0,0-3.923-4Z"/><path class="cls-82" d="M383.9691,341.5719a4.0045,4.0045,0,0,0,4-4l.0012-7.9858a1.9694,1.9694,0,0,0-2.0012-1.9625,2,2,0,0,0-2,2v7.9483a1.8016,1.8016,0,0,1-1,0v-7.9483a2,2,0,0,0-2-2,1.9694,1.9694,0,0,0-2.0011,1.9625l.0011,7.9858a4.0046,4.0046,0,0,0,4,4Z"/></g><g id="R-ICO-012565-3" data-name="R-ICO-012565"><path class="cls-83" d="M286.0446,421.5769a3.9394,3.9394,0,0,0-3.9229,4V439.47a2.0006,2.0006,0,0,0,4.0011-.0243V425.5769a1.7843,1.7843,0,0,1,.9994,0v13.8686a2.0006,2.0006,0,0,0,4.0011.0243V425.5769a3.9394,3.9394,0,0,0-3.9229-4Z"/><path class="cls-84" d="M287.1222,421.5769a4.0045,4.0045,0,0,0,4-4l.0011-7.9857a1.9694,1.9694,0,0,0-2.0011-1.9626,2,2,0,0,0-2,2v7.9483a1.8013,1.8013,0,0,1-.9994,0v-7.9483a2,2,0,0,0-2-2,1.9694,1.9694,0,0,0-2.0011,1.9626l.0011,7.9857a4.0045,4.0045,0,0,0,4,4Z"/><rect class="cls-85" x="282.1219" y="411.1688" width="4.0009" height="3.4071"/><rect class="cls-86" x="287.1222" y="432.2041" width="4.0011" height="3.4071"/></g><g id="R-ICO-012564-3" data-name="R-ICO-012564"><path class="cls-87" d="M466.7379,421.5769a3.94,3.94,0,0,0-3.9229,4V439.47a2.0006,2.0006,0,0,0,4.0011-.0243V425.5769a1.7847,1.7847,0,0,1,1,0v13.8686a2.0006,2.0006,0,0,0,4.0011.0243V425.5769a3.94,3.94,0,0,0-3.9229-4Z"/><path class="cls-88" d="M467.8156,421.5769a4.0046,4.0046,0,0,0,4-4l.0011-7.9857a1.9694,1.9694,0,0,0-2.0011-1.9626,2,2,0,0,0-2,2v7.9483a1.8016,1.8016,0,0,1-1,0v-7.9483a2,2,0,0,0-2-2,1.9694,1.9694,0,0,0-2.0011,1.9626l.0011,7.9857a4.0045,4.0045,0,0,0,4,4Z"/><rect class="cls-89" x="462.8152" y="411.1688" width="4.0009" height="3.4071"/><rect class="cls-90" x="467.8156" y="432.2041" width="4.0012" height="3.4071"/></g><g id="R-ICO-012565-4" data-name="R-ICO-012565"><path class="cls-91" d="M341.1143,513.5394a2,2,0,0,1-2-2v-9.9741a2,2,0,0,1,4,0v9.9741A2,2,0,0,1,341.1143,513.5394Z"/><path class="cls-92" d="M341.1143,533.3822a2,2,0,0,1-2-2V515.5394a2,2,0,0,1,4,0v15.8428A2,2,0,0,1,341.1143,533.3822Z"/><rect class="cls-93" x="339.1137" y="523.2833" width="4.0011" height="3.4071"/></g><g id="R-ICO-012565-5" data-name="R-ICO-012565"><path class="cls-94" d="M232.1307,513.5394a2,2,0,0,1-2-2v-9.9741a2,2,0,0,1,4,0v9.9741A2,2,0,0,1,232.1307,513.5394Z"/><path class="cls-95" d="M232.1307,533.3822a2,2,0,0,1-2-2V515.5394a2,2,0,0,1,4,0v15.8428A2,2,0,0,1,232.1307,533.3822Z"/><rect class="cls-96" x="230.1303" y="502.248" width="4.0009" height="3.4071"/></g><g id="R-ICO-012564-4" data-name="R-ICO-012564"><path class="cls-97" d="M412.8241,513.5394a2,2,0,0,1-2-2v-9.9741a2,2,0,0,1,4,0v9.9741A2,2,0,0,1,412.8241,513.5394Z"/><path class="cls-98" d="M412.8241,533.3822a2,2,0,0,1-2-2V515.5394a2,2,0,0,1,4,0v15.8428A2,2,0,0,1,412.8241,533.3822Z"/><rect class="cls-99" x="410.8236" y="503.1054" width="4.0009" height="3.4071"/></g><g id="R-ICO-012564-5" data-name="R-ICO-012564"><path class="cls-100" d="M521.8077,513.5394a2,2,0,0,1-2-2v-9.9741a2,2,0,0,1,4,0v9.9741A2,2,0,0,1,521.8077,513.5394Z"/><path class="cls-101" d="M521.8077,533.3822a2,2,0,0,1-2-2V515.5394a2,2,0,0,1,4,0v15.8428A2,2,0,0,1,521.8077,533.3822Z"/><rect class="cls-102" x="519.8071" y="524.1408" width="4.0012" height="3.4071"/></g><g id="OVERLAY-R-HSA-1500620"><rect class="cls-103" x="288.8903" y="605.2581" width="170" height="30" rx="8"/><text class="cls-51" transform="translate(348.8856 623.1472)">MEIOSIS</text></g><g id="ANALINFO" class="cls-104"><rect class="cls-105" x="288.8903" y="635.2581" width="170" height="20" rx="8"/><text id="_Group_" data-name="&lt;Group&gt;" class="cls-106" transform="translate(354.6317 647.4249)">XXX/YYY</text></g></g><g id="REGION-R-HSA-69278"><circle id="MASK-11" data-name="MASK" class="cls-74" cx="667.2531" cy="380.5079" r="108.369" transform="translate(-80.4602 204.6163) rotate(-16.4568)"/><g id="TOP" class="cls-107"><g id="_Group_2" data-name="&lt;Group&gt;"><g id="Nucleus" class="cls-108"><circle class="cls-109" cx="624.5939" cy="346.7799" r="5.44"/><path class="cls-110" d="M624.5939,352.42a5.64,5.64,0,1,1,5.64-5.64A5.6463,5.6463,0,0,1,624.5939,352.42Zm0-10.88a5.24,5.24,0,1,0,5.24,5.24A5.2451,5.2451,0,0,0,624.5939,341.54Z"/></g><g id="Nucleolus"><circle class="cls-111" cx="621.8339" cy="346.7499" r="1.11"/><path class="cls-112" d="M621.8339,347.92a1.165,1.165,0,1,1,1.16-1.17A1.1608,1.1608,0,0,1,621.8339,347.92Zm0-2.23a1.06,1.06,0,1,0,1.06,1.06A1.0605,1.0605,0,0,0,621.8339,345.69Z"/></g></g><circle class="cls-113" cx="621.554" cy="346.7799" r="16.4035"/><circle class="cls-114" cx="621.554" cy="346.7499" r="16.4035"/></g><g id="MITOSIS" class="cls-107"><g id="R-ICO-013121"><g id="Nucleus-2" data-name="Nucleus" class="cls-108"><circle class="cls-115" cx="690.3592" cy="346.7799" r="5.44"/><path class="cls-110" d="M690.3592,352.42a5.64,5.64,0,1,1,5.64-5.64A5.6463,5.6463,0,0,1,690.3592,352.42Zm0-10.88a5.24,5.24,0,1,0,5.24,5.24A5.2451,5.2451,0,0,0,690.3592,341.54Z"/></g><g id="Nucleolus-2" data-name="Nucleolus"><circle class="cls-116" cx="687.5992" cy="346.7499" r="1.11"/><path class="cls-112" d="M687.5992,347.92a1.165,1.165,0,1,1,1.16-1.17A1.1608,1.1608,0,0,1,687.5992,347.92Zm0-2.23a1.06,1.06,0,1,0,1.06,1.06A1.0605,1.0605,0,0,0,687.5992,345.69Z"/></g></g><g id="R-ICO-013121-2" data-name="R-ICO-013121"><g id="Nucleus-3" data-name="Nucleus" class="cls-108"><circle class="cls-117" cx="706.7245" cy="346.7799" r="5.44"/><path class="cls-110" d="M706.7245,352.42a5.64,5.64,0,1,1,5.64-5.64A5.6463,5.6463,0,0,1,706.7245,352.42Zm0-10.88a5.24,5.24,0,1,0,5.24,5.24A5.2451,5.2451,0,0,0,706.7245,341.54Z"/></g><g id="Nucleolus-3" data-name="Nucleolus"><circle class="cls-118" cx="703.9645" cy="346.7499" r="1.11"/><path class="cls-112" d="M703.9645,347.92a1.165,1.165,0,1,1,1.16-1.17A1.1608,1.1608,0,0,1,703.9645,347.92Zm0-2.23a1.06,1.06,0,1,0,1.06,1.06A1.0605,1.0605,0,0,0,703.9645,345.69Z"/></g></g><g id="TOP-2" data-name="TOP"><path class="cls-119" d="M712.3645,329.1863a16.35,16.35,0,0,0-12.3537,5.6348,16.4036,16.4036,0,1,0,0,21.5375,16.3973,16.3973,0,1,0,12.3537-27.1723Z"/><circle class="cls-120" cx="687.6572" cy="345.5899" r="16.4035"/><circle class="cls-121" cx="712.3645" cy="345.5899" r="16.4035"/><g class="cls-122"><ellipse class="cls-123" cx="700.0109" cy="345.5898" rx="6.6272" ry="10.7687"/></g><g class="cls-124"><ellipse class="cls-125" cx="699.0108" cy="345.5898" rx="2.8437" ry="10.7687"/></g></g></g><g id="OVERLAY-R-HSA-69278"><rect class="cls-103" x="582.2534" y="371.6283" width="170" height="30" rx="8"/><text class="cls-51" transform="translate(601.5902 391.0153)">CELL CYCLE, MITOTIC</text></g><g id="ANALINFO-2" data-name="ANALINFO" class="cls-104"><rect class="cls-105" x="582.2534" y="401.6283" width="170" height="20" rx="8"/><text id="_Group_3" data-name="&lt;Group&gt;" class="cls-106" transform="translate(647.9061 413.7943)">XXX/YYY</text></g></g><g id="REGION-R-HSA-69620"><path id="MASK-12" data-name="MASK" class="cls-74" d="M776.75,449.573H854l.0534-25.916-87.374.0094L743.5815,413.603a82.4724,82.4724,0,0,1-7.2979,13.3506l20.8633,14.096Zm-195.7678-3.4716a108.4606,108.4606,0,0,1-13.0343-109.02l23.0942,10.0619a82.4686,82.4686,0,0,1,7.3608-13.3473l-20.8494-14.0872c.896-1.32,1.8087-2.6277,2.7608-3.905q2.7309-3.615,5.56-6.8518c.0967-.11.1943-.219.2915-.3285.5977-.6794,1.2039-1.3332,1.8092-1.9893a108.8911,108.8911,0,0,1,21.2016-17.6314c1.0609-.6633,2.14-1.3024,3.227-1.9309l12.7942,21.6638a83.3432,83.3432,0,0,1,13.7418-6.4549l-8.65-23.6637a108.1449,108.1449,0,0,1,36.9637-6.4788,110.1421,110.1421,0,0,1,61.1886,18.9149L929.1565,0H448.545V287.1755l27.2151,69.183,82.0508,101.534Zm0,0"/><g id="CYCLE_CHECKPOINTS"><path class="cls-126" d="M612.37,287.0147a108.6083,108.6083,0,0,1,17.9115-8.42l8.6584,23.6863a83.3308,83.3308,0,0,0-13.7418,6.4548Z"/><path class="cls-127" d="M598.4029,333.7963a82.4618,82.4618,0,0,0-7.3608,13.3474l-23.13-10.0773a107.4817,107.4817,0,0,1,9.5837-17.3959Z"/><path class="cls-128" d="M736.2836,426.9536a82.4724,82.4724,0,0,0,7.2979-13.3506L766.7109,423.68A107.4769,107.4769,0,0,1,757.19,441.079Z"/></g><g id="OVERLAY-R-HSA-69620"><rect class="cls-103" x="574.3579" y="192.1355" width="185.791" height="30" rx="8"/><text class="cls-51" transform="translate(584.2494 211.1355)">CELL CYCLE CHECKPOINTS</text></g><g id="ANALINFO-3" data-name="ANALINFO" class="cls-104"><rect class="cls-105" x="574.3579" y="172.1355" width="185.791" height="20" rx="8"/><text id="_Group_4" data-name="&lt;Group&gt;" class="cls-106" transform="translate(647.9063 184.3021)">XXX/YYY</text></g></g><g id="REGION-R-HSA-73886"><path id="MASK-13" data-name="MASK" class="cls-74" d="M757.1469,441.05c-46.48,65.5028-132.553,61.6171-176.1647,5.0518l-23.1713,11.7911V768H1366V215.79l-364.5841,1.7484L929.1565,0,728.4418,291.0535a108.5514,108.5514,0,0,1,46.1388,104.5428c-.871,6.2528-6.0106,22.2063-7.9012,28.07l87.374-.0094L854,449.573H776.75Z"/><g id="R-ICO-012564-6" data-name="R-ICO-012564"><g id="BASE"><path class="cls-129" d="M932.6044,521.2989c-10.0526,10.0526-9.7012,26.0587.3514,36.1113l63.3211,63.3212a12.8955,12.8955,0,0,0,18.1259-18.3468l-63.2107-63.2107a11.5,11.5,0,0,1,4.5553-4.5553l63.2107,63.2107a12.8958,12.8958,0,0,0,18.3471-18.1262L973.984,516.382c-10.0526-10.0526-26.0589-10.4037-36.1115-.3511Z"/><path class="cls-129" d="M937.5161,516.3873a25.8126,25.8126,0,0,0,0-36.4627l-36.3926-36.4031a12.6945,12.6945,0,0,0-18.0658.1761,12.8923,12.8923,0,0,0,0,18.2313l36.2271,36.227a11.6151,11.6151,0,0,1-4.5554,4.5554l-36.227-36.2271a12.8923,12.8923,0,0,0-18.2313,0,12.6943,12.6943,0,0,0-.1758,18.0656l36.4028,36.3928a25.8126,25.8126,0,0,0,36.4627,0Z"/></g><g id="_Group_5" data-name="&lt;Group&gt;"><path id="Telomere" class="cls-130" d="M1013.444,592.3152l5.5141,5.5141a12.8958,12.8958,0,0,0,18.3471-18.1262l-5.6246-5.6245s2.304,2.304-6.8143,11.4223S1013.444,592.3152,1013.444,592.3152Z"/><path id="Telomere-2" data-name="Telomere" class="cls-131" d="M990.6523,615.1068l5.6246,5.6246a12.8955,12.8955,0,0,0,18.1259-18.3468l-5.5141-5.5141s2.304,2.304-6.8142,11.4222S990.6523,615.1068,990.6523,615.1068Z"/><path id="Telomere-3" data-name="Telomere" class="cls-132" d="M884.3778,472.36l-5.8754-5.8754a12.8923,12.8923,0,0,0-18.2313,0,12.6943,12.6943,0,0,0-.1758,18.0656l6.0512,6.0412s2.6149,1.993,11.4171-6.8092S884.3778,472.36,884.3778,472.36Z"/><path id="Telomere-4" data-name="Telomere" class="cls-133" d="M907.1645,449.573l-6.041-6.0515a12.6945,12.6945,0,0,0-18.0658.1761,12.8923,12.8923,0,0,0,0,18.2313l5.8754,5.8754s2.3107,2.2973,11.423-6.815S907.1645,449.573,907.1645,449.573Z"/></g><g class="cls-134"><path id="DOWN_ROUND_SHADOW" class="cls-135" d="M932.6044,521.2989c-10.0526,10.0526-9.7012,26.0587.3514,36.1113l63.3211,63.3212a12.8955,12.8955,0,0,0,18.1259-18.3468l-63.2107-63.2107a11.5,11.5,0,0,1,4.5553-4.5553l63.2107,63.2107a12.8958,12.8958,0,0,0,18.3471-18.1262L973.984,516.382c-10.0526-10.0526-26.0589-10.4037-36.1115-.3511Z"/></g><g class="cls-136"><path id="DOWN_SHADOW" class="cls-137" d="M932.6044,521.2989c-10.0526,10.0526-9.7012,26.0587.3514,36.1113l63.3211,63.3212a12.8955,12.8955,0,0,0,18.1259-18.3468l-63.2107-63.2107a11.5,11.5,0,0,1,4.5553-4.5553l63.2107,63.2107a12.8958,12.8958,0,0,0,18.3471-18.1262L973.984,516.382c-10.0526-10.0526-26.0589-10.4037-36.1115-.3511Z"/></g><g class="cls-138"><g id="TEXTURE" class="cls-139"><path class="cls-140" d="M890.1567,440.009c1.2853,2.7088,2.3754,4.8007,2.4914,12.06.1457,9.1139-.4379,19.0119,2.3116,21.7614h0c-3.1389-3.139-3.7022-11.9413-3.645-21.7589.0389-6.6731.0389-8.5587-1.158-12.063Z"/><path class="cls-141" d="M901.0884,479.96h0c-3.1391-3.1392-3.6272-11.9411-3.645-21.7589-.0156-8.5773-1.5831-15.8951-4-18.3122h0c2.8068,2.8068,5.3169,9.0545,5.3337,18.31C898.7934,467.3133,898.3387,477.21,901.0884,479.96Z"/><path class="cls-142" d="M907.2171,486.0883h0c-3.1391-3.1392-3.6272-11.9411-3.6452-21.7591-.0156-8.5773-2.2479-20.1615-4.665-22.5786h0c2.8066,2.8066,5.9817,13.3209,5.9985,22.5761C904.9222,473.442,904.4674,483.3386,907.2171,486.0883Z"/><path class="cls-143" d="M913.3459,492.217h0c-3.1392-3.1391-3.6273-11.941-3.6452-21.7591-.0155-8.5771.4352-17.9135-1.9819-20.3306h0c2.8068,2.8068,3.2985,11.0729,3.3155,20.3283C911.0509,479.5707,910.5962,489.4673,913.3459,492.217Z"/><path class="cls-144" d="M919.2848,498.1559h0c-3.1392-3.1391-3.4379-11.7517-3.4559-21.57-.0152-8.5769.4355-17.9133-1.9814-20.33h0c2.8063,2.8063,3.298,11.0724,3.3151,20.3279C917.1791,485.6989,916.5351,495.4062,919.2848,498.1559Z"/><path class="cls-145" d="M926.0741,504.0027l-.9428.9428c-3.1391-3.1392-3.1557-12.4126-3.1737-22.2306-.0152-8.5769.4408-17.9186-1.9761-20.3355h0c2.8063,2.8064,3.2928,11.0778,3.31,20.3332C923.3079,491.8277,923.3244,501.253,926.0741,504.0027Z"/><path class="cls-146" d="M932.2029,510.1314l-.9429.9428c-3.1391-3.1391-3.1557-12.4125-3.1736-22.2306-.0152-8.5769.4407-17.9186-1.9762-20.3354h0c2.8063,2.8063,3.2928,11.0777,3.31,20.3331C929.4366,497.9564,929.4531,507.3817,932.2029,510.1314Z"/><path class="cls-147" d="M919.32,461.7283h0c-2.75-2.75-12.6417-2.3-21.7568-2.3161-9.2552-.0168-15.42-2.61-18.2266-5.4168h0c2.4171,2.4171,9.6518,4.0677,18.2291,4.0833C907.3832,458.0965,916.1806,458.5891,919.32,461.7283Z"/><path class="cls-148" d="M925.4537,467.8517h0c-2.75-2.75-12.647-2.2942-21.7623-2.311-9.2552-.0169-19.7319-3.23-22.5385-6.0361h0c2.4171,2.4171,13.9637,4.687,22.541,4.7026C913.5119,464.2252,922.3146,464.7125,925.4537,467.8517Z"/><path class="cls-149" d="M931.5772,473.9857h0c-2.75-2.75-12.6418-2.3-21.7569-2.3161-9.2554-.017-17.5261-.5042-20.3329-3.311h0c2.4171,2.4171,11.7581,1.9619,20.3352,1.9774C919.6407,470.3539,928.438,470.8465,931.5772,473.9857Z"/><path class="cls-150" d="M937.704,480.1154h0c-2.75-2.75-12.64-2.301-21.7554-2.3175-9.2555-.0171-17.5261-.5042-20.3324-3.3106h0c2.4168,2.4169,11.7578,1.9617,20.3347,1.9769C925.7689,476.4822,934.5648,476.9762,937.704,480.1154Z"/><path class="cls-151" d="M942.7051,487.3717h0c-2.75-2.75-11.5127-3.4285-20.6278-3.4451-9.2554-.0171-17.5261-.5042-20.3324-3.31h0c2.4169,2.4168,11.7578,1.9616,20.3347,1.9768C931.8976,482.6109,939.5659,484.2326,942.7051,487.3717Z"/><path class="cls-152" d="M945.04,497.2943h0a22.438,22.438,0,0,0-16.834-7.239c-9.2554-.017-17.5261-.5042-20.3324-3.31h0c2.4169,2.4168,11.7579,1.9617,20.3347,1.9768C938.0264,488.74,941.9008,494.1551,945.04,497.2943Z"/><path class="cls-153" d="M879.4552,450.7105c2.7126,1.4968,7.451,1.2313,11.9815,1.2395,9.8178.0177,18.6154.5106,21.7543,3.6495h0c-2.75-2.7494-12.6439-2.1188-21.7568-2.3161-9.45-.2045-11.298-2.1439-11.979-2.5729Z"/><path class="cls-154" d="M880.9865,446.401a93.0273,93.0273,0,0,0,10.2689-.236c9.81-.1854,12.77.2688,15.9091,3.408h0c-2.75-2.7495-20.7744-2.0634-26.5161-2.5428l.1663-.32Z"/><path class="cls-155" d="M886.0707,441.4546c.0008,1.9714-.5208,9.1284-.5456,10.4407-.1854,9.81.2689,12.77,3.408,15.909h0c-2.7494-2.75-2.4019-12.7442-2.4185-21.8592a17.0308,17.0308,0,0,0-.4439-4.49Z"/></g></g><g class="cls-156"><path id="UP_ROUND_SHADOW" class="cls-157" d="M937.5161,516.3873a25.8126,25.8126,0,0,0,0-36.4627l-36.3926-36.4031a12.6945,12.6945,0,0,0-18.0658.1761,12.8923,12.8923,0,0,0,0,18.2313l36.2271,36.227a11.6151,11.6151,0,0,1-4.5554,4.5554l-36.227-36.2271a12.8923,12.8923,0,0,0-18.2313,0,12.6943,12.6943,0,0,0-.1758,18.0656l36.4028,36.3928a25.8126,25.8126,0,0,0,36.4627,0Z"/></g><g class="cls-158"><path id="UP_SHADOW" class="cls-159" d="M937.5161,516.3873a25.8126,25.8126,0,0,0,0-36.4627l-36.3926-36.4031a12.6945,12.6945,0,0,0-18.0658.1761,12.8923,12.8923,0,0,0,0,18.2313l36.2271,36.227a11.6151,11.6151,0,0,1-4.5554,4.5554l-36.227-36.2271a12.8923,12.8923,0,0,0-18.2313,0,12.6943,12.6943,0,0,0-.1758,18.0656l36.4028,36.3928a25.8126,25.8126,0,0,0,36.4627,0Z"/></g><g class="cls-160"><path id="Shine_UP" class="cls-161" d="M921.0135,514.2866c-4.895,1.3116-10.0084.6462-13.6539-3.066a2.3334,2.3334,0,1,1,3.33-3.27c4.1526,4.2288,11.5723,2.1969,16.3456-2.2075a12.4879,12.4879,0,0,0,4.1137-8.6471,9.0019,9.0019,0,0,0-2.3252-6.5875,2.3336,2.3336,0,0,1,3.3817-3.2166,13.6266,13.6266,0,0,1,3.6074,9.9564A17.1758,17.1758,0,0,1,930.2,509.1723,22.3063,22.3063,0,0,1,921.0135,514.2866Z"/></g><g class="cls-162"><path id="Shine_DOWN" class="cls-163" d="M950.7821,516.9389c4.895-1.3116,10.0084-.6463,13.654,3.066a2.3334,2.3334,0,0,1-3.33,3.27c-4.1527-4.2289-11.5723-2.197-16.3457,2.2074a12.4886,12.4886,0,0,0-4.1137,8.6471,9.0022,9.0022,0,0,0,2.3252,6.5875,2.3336,2.3336,0,1,1-3.3817,3.2167,13.6262,13.6262,0,0,1-3.6073-9.9564,17.1752,17.1752,0,0,1,5.6128-11.9241A22.3047,22.3047,0,0,1,950.7821,516.9389Z"/></g></g><g id="R-ICO-013131"><path class="cls-164" d="M853.1737,311.0141c-8.9854,11.1861-17.2905,17.237-23.4457,8.9062l1.7739,3.971c6.1552,8.3307,14.42,2.1944,23.4055-8.9916Z"/><g id="Nucleosome_2"><path class="cls-165" d="M850.2374,307.1338c.92,1.9608,9.535,20.621,10.3751,22.4116,2.9884,6.3691,15.225,6.9276,27.3314,1.2474s19.4981-15.448,16.51-21.8171c-.97-2.0681-9.1971-19.9006-10.3752-22.4116Z"/><ellipse class="cls-166" cx="871.8701" cy="296.2218" rx="24.2134" ry="12.7385" transform="translate(-43.2625 398.3845) rotate(-25.1354)"/></g><path class="cls-167" d="M856.029,319.75c2.9883,6.3691,16.2091,3.1112,24.57-.7268,12.1533-5.579,20.6016-17.0853,17.6133-23.4544l-1.9894-4.3338c2.9883,6.3691-5.46,17.8754-17.6134,23.4544-8.5395,3.92-21.5816,7.0959-24.57.7268Z"/><path class="cls-168" d="M858.447,366.6352c-6.7272-14.5432,5.4654-34.5584,22.685-42.3693,11.3941-5.1684,22.9615-16.0631,19.07-24.363l2.03,4.5056c3.8168,8.3144-8.87,19.6705-19.0883,24.24-19.3909,8.67-28.0726,28.6694-22.8713,41.6711Z"/><g id="Nucleosome_2-2" data-name="Nucleosome_2"><path class="cls-169" d="M856.0207,361.1392c.92,1.9607,9.5351,20.621,10.3752,22.4115,2.9883,6.3692,15.2249,6.9277,27.3313,1.2475s19.4981-15.448,16.51-21.8172c-.97-2.068-9.197-19.9006-10.3752-22.4115Z"/><ellipse class="cls-170" cx="877.6534" cy="350.2271" rx="24.2134" ry="12.7385" transform="translate(-65.654 405.9549) rotate(-25.1354)"/></g><path class="cls-171" d="M927.2039,348.5952c-3.22,1.949-7.9812,5.0673-9.4507,6.18-10.1171,7.6577-10.146,13.9694-23.6179,21.854-9.0476,5.2951-26.8556,7.0611-30.6286.6866l1.8265,3.9477c3.773,6.3745,21.5478,4.2236,30.5954-1.0715,13.4719-7.8845,13.5008-14.1962,23.6179-21.854,1.4695-1.1123,6.2306-4.2306,9.4507-6.18Z"/><g id="Nucleosome_2-3" data-name="Nucleosome_2"><path class="cls-172" d="M909.4869,357.1571c.92,1.9608,9.5351,20.621,10.3752,22.4116,2.9883,6.3691,15.2249,6.9276,27.3313,1.2474s19.4981-15.448,16.51-21.8171c-.97-2.0681-9.197-19.9006-10.3751-22.4116Z"/><ellipse class="cls-173" cx="931.1196" cy="346.2451" rx="24.2134" ry="12.7385" transform="translate(-58.8997 428.2881) rotate(-25.1354)"/></g><path class="cls-174" d="M915.2785,369.7736c2.9883,6.3691,16.2092,3.1112,24.57-.7268,12.1534-5.579,20.6016-17.0853,17.6133-23.4544l-1.9894-4.3338c2.9883,6.3691-5.46,17.8754-17.6133,23.4544-8.5395,3.92-21.5817,7.0959-24.57.7268Z"/><path class="cls-175" d="M860.2371,370.2418c2.9883,6.3691,15.7934,8.7374,28.1631,3.0591,8.2893-3.8052,20.6613-12.914,17.673-19.2831l-1.99-4.3338c2.9883,6.3691-9.2205,15.403-17.673,19.2831-12.4933,5.7351-25.337,3.2443-28.3253-3.1248Z"/><path class="cls-176" d="M975.0526,408.5077c-8.58-8.9965-17.5788,1.0193-29.85-2.3559-12.0411-3.502-14.3277-15.5477.1691-27.7614,7.2057-6.0709,19.9658-16.7245,17.06-22.1313l-1.9275-4.1671c3.1186,5.9222-9.7,16.6819-16.9059,22.7528-14.4968,12.2138-12.21,24.2594-.1691,27.7615,12.9259,3.3971,21.7716-5.0874,28.8783,1.9135Z"/></g><g id="OVERLAY-R-HSA-73886"><rect class="cls-103" x="967.8773" y="437.6235" width="201.998" height="30" rx="8"/><text class="cls-51" transform="translate(977.8773 457.3978)">CHROMOSOME MAINTENANCE</text></g><g id="ANALINFO-4" data-name="ANALINFO" class="cls-104"><rect class="cls-105" x="967.8773" y="467.6235" width="201.998" height="20" rx="8"/><text id="_Group_6" data-name="&lt;Group&gt;" class="cls-106" transform="translate(1049.6173 479.7903)">XXX/YYY</text></g></g></svg>